<svg xmlns="http://www.w3.org/2000/svg" width="1921" height="2047" fill="none" viewBox="0 0 1921 2047"><path fill="#8B0000" fill-opacity=".15" d="M960.33 2046.49v-21.4a213.4 213.4 0 0 0-8.22 5.37c-7.24 4.95-12.75 10.32-19.58 16.03h27.8Zm-68.02 0c3.79-3.75 7.73-7.33 11.76-10.91a624 624 0 0 1 23.03-18.76 331.33 331.33 0 0 1 25-17.4l8.23-4.94v-27.97l-8.22 4.6a368.36 368.36 0 0 0-73.04 54.92c-6.66 6.65-13.74 13.38-19.99 20.46h33.23Zm-65.8 0 4.6-5.46a387.74 387.74 0 0 1 47.96-49.11 357.04 357.04 0 0 1 25-19.78 343.23 343.23 0 0 1 48.04-30.02l8.22-4.26v-25.84l-8.22 3.92a353.34 353.34 0 0 0-25 13.22 326.48 326.48 0 0 0-23.04 14.32 316.01 316.01 0 0 0-25 18.08 433.4 433.4 0 0 0-82 84.93h29.44Zm-60.28 0c5.5-8.36 10.44-16.37 16.44-24.22a424.51 424.51 0 0 1 48.12-53.55c7.81-7.5 16.45-15 24.92-22.17a599.05 599.05 0 0 1 23.03-17.73 646.05 646.05 0 0 1 25-16.63 313.07 313.07 0 0 1 23.03-13.3c8.23-4.44 16.45-8.87 25-12.62l8.56-3.84v-25.41l-8.55 3.67a411.21 411.21 0 0 0-73.04 39.9 476.8 476.8 0 0 0-95.98 85.19 623.38 623.38 0 0 0-23.03 28.99c-7.57 10.23-14.07 20.81-20.9 31.72h27.4Zm-59.72 0 2.88-5.11c7.24-11.94 14.8-23.88 23.03-35.14a485.61 485.61 0 0 1 48.03-57.98 563.23 563.23 0 0 1 25-24.22 415.98 415.98 0 0 1 23.04-19.35c8.22-6.48 16.45-12.96 24.92-18.76 7.57-5.12 15.13-10.24 23.03-15.35a609.38 609.38 0 0 1 25-14.67 500.72 500.72 0 0 1 23.03-11.6 559.9 559.9 0 0 1 35.86-15.26v-767.43l-8.55 7.33a251.52 251.52 0 0 0-25 25.24 289.99 289.99 0 0 0-23.04 30.36c-30.15 45.92-46.83 99.91-48.03 155.44v576.94a419.7 419.7 0 0 0-24.92 17.74v-593.99a317.37 317.37 0 0 1 26.03-121.1 307.69 307.69 0 0 1 70.04-100.61c7.81-7.41 14.23-14.75 22.78-21.31 2.88-2.14 7.81-6.4 10.7-8.45v-5.96h-27.8a348.77 348.77 0 0 0-28.8 26.26 336.77 336.77 0 0 0-48.03 62.42 319.93 319.93 0 0 0-24.92 51.41 341.44 341.44 0 0 0-23.03 116.31v613.1a400.75 400.75 0 0 0-25 22.51v-636.97c.99-43.5 9.45-86.47 25-126.88a358.17 358.17 0 0 1 47.95-86.55 361 361 0 0 1 36.6-41.61h-33.23l-3.29 3.75a385.76 385.76 0 0 0-73.03 125.17 396.26 396.26 0 0 0-23.03 125.44v660.84a587.63 587.63 0 0 0-25 29v-689.5a428.81 428.81 0 0 1 25-135.67 408.08 408.08 0 0 1 23.03-52.18 469.83 469.83 0 0 1 25-41.61 371.72 371.72 0 0 1 18.75-25.24h-29.44a476.3 476.3 0 0 0-37.34 60.71 448.47 448.47 0 0 0-48.03 193.99v720.53a498.67 498.67 0 0 0-25 39.74v-760.36a475.45 475.45 0 0 1 48.02-200.13 534.62 534.62 0 0 1 25-44.68l6.5-9.8h-27.38l-4.12 6.82a478.72 478.72 0 0 0-48.03 106.41 503.2 503.2 0 0 0-23.03 141.81v768.2h42.85Zm-70.48 0 2.63-768.88a529.8 529.8 0 0 1 48.03-211.73c6.74-14.5 11.93-28.82 19.74-42.63h-42.77l-2.63 37.51a527.51 527.51 0 0 0-25 67.2v-104.71H613v616.84a584.4 584.4 0 0 0-24.92-67.53v-549.31h-23.36v503.94c-7.9-13.64-16.12-27.28-25-40.24v-463.7h-23.04v432.66a518.58 518.58 0 0 0-25-28.99v-403.67h-23.36v380.56a514.9 514.9 0 0 0-25-22.51v-358.05h-23.36v339.63a670 670 0 0 0-25-17.74v-321.89h-20.07v307.82c-8.23-4.69-16.45-9.46-25-13.64v-294.18H326.6v283.01c-8.23-3.75-16.78-7.16-25-10.58v-272.43h-23.04v264.25c-8.22-2.73-16.77-5.12-25-7.51v-256.74h-23.03v251.29a646.86 646.86 0 0 0-25-4.78v-246.51h-24.35v242.76c-8.22-1.02-16.78-1.7-25-2.39v-240.37H58.64c-7.32 3.24-14.39 7.07-21.46 10.91-8.56 4.78-16.45 11.17-24.43 17.05-4.11 2.9-8.8 7.25-12.75 10.49v767.44a706.92 706.92 0 0 1 37.18-12.11l23.03-6.14a468.6 468.6 0 0 1 96.06-11.94v-260.16a294.55 294.55 0 0 1 24.92 5.12v502.58h24.35v-496.44c8.55 3.07 17.1 6.82 25 10.91v485.53h23.03v-472.91a189.74 189.74 0 0 1 25 18.42v454.49h23.04v-433.34a245.61 245.61 0 0 1 25 30.69v402.65h23.27v-362.4a268.4 268.4 0 0 1 25 110.43v251.97h20.08l1.31-252.31a289.68 289.68 0 0 0-23.03-110.86c-24.4-58.51-67-106.86-120.98-137.37a290.52 290.52 0 0 0-48.04-21.48 254.62 254.62 0 0 0-71.06-12.97v263.58c-8.55.68-16.78 1.36-25 2.38v-746.03a292.74 292.74 0 0 1 25-5.11v260.16l23.03 1.02c16.1 1.1 32.13 3.04 48.03 5.8 8.4 1.34 16.74 3.05 25 5.11 7.9 1.71 15.47 3.76 23.04 6.14a467.76 467.76 0 0 1 48.03 16.37 486.24 486.24 0 0 1 48.03 22.52 600.09 600.09 0 0 1 24.92 14.66 344.4 344.4 0 0 1 23.03 15.35 699.04 699.04 0 0 1 25 18.76c7.9 6.14 15.47 12.96 23.04 19.36a576.53 576.53 0 0 1 25 24.21 464.89 464.89 0 0 1 48.03 57.99 498.72 498.72 0 0 1 48.03 83.22 527.29 527.29 0 0 1 48.04 216.59l-.5 252.83 23.12.08Zm-47.95 0 .32-253c-.78-117.99-43.13-231.63-119.1-319.5a476.65 476.65 0 0 0-48.02-48.44 467.31 467.31 0 0 0-95.99-65.06 410.63 410.63 0 0 0-25-11.6 272.28 272.28 0 0 0-23.03-9.21c-8.23-3.07-16.78-5.79-25-8.52a447.9 447.9 0 0 0-23.03-6.48c-8.23-2.05-16.78-3.76-25-5.46a468.4 468.4 0 0 0-48.04-6.48c-7.57-.68-15.46-1.02-23.03-1.37v23.88c7.57.34 15.46.68 23.03 1.36 8.35.73 16.69 1.64 25 2.73 7.9 1.03 15.47 2.39 23.03 3.76a536.78 536.78 0 0 1 25 5.79c7.9 2.05 15.47 4.1 23.04 6.83 8.55 2.72 16.77 5.79 25 8.86 7.9 3.07 15.46 6.48 23.03 9.89 8.55 3.76 16.78 8.19 25 12.62a313.2 313.2 0 0 1 23.03 13.31 650.51 650.51 0 0 1 24.92 16.62 612.81 612.81 0 0 1 23.03 17.74 541.32 541.32 0 0 1 25 22.17 424.19 424.19 0 0 1 48.04 53.55c8.22 10.57 15.8 21.83 23.03 33.09a454.78 454.78 0 0 1 25 44.68 473.32 473.32 0 0 1 48.03 205.24l-.65 253h23.36Zm-48.37 0 .66-252.31c-.77-99.79-34.7-196.25-96.06-273.13a434.87 434.87 0 0 0-71.07-70.6 433.06 433.06 0 0 0-25-18.42 292.56 292.56 0 0 0-23.03-14.32 476.52 476.52 0 0 0-48.03-23.88c-8.23-3.41-16.7-6.39-24.92-9.46a259.73 259.73 0 0 0-23.03-7.17 336 336 0 0 0-48.04-10.23 313.53 313.53 0 0 0-25-3.07c-7.57-.68-15.46-1.02-23.03-1.36v23.87c7.69.28 15.36.73 23.03 1.37 8.55.68 16.78 1.7 25 3.07 7.9 1.36 15.47 2.73 23.03 4.43a455.36 455.36 0 0 1 48.04 13.98c8.46 3.06 16.8 6.47 25 10.24a364.8 364.8 0 0 1 48.03 25.58c7.9 4.69 15.46 10.23 23.03 15.6a361.89 361.89 0 0 1 47.95 41.27 387.94 387.94 0 0 1 25 27.63 404.2 404.2 0 0 1 48.04 71.97 408.13 408.13 0 0 1 23.03 52.19 422.61 422.61 0 0 1 25 140.44l-.66 252.31h23.03Zm-48.03 0 .66-251.97a392.6 392.6 0 0 0-96.07-255.05c-7.23-8.52-15.13-16.37-23.03-24.21-7.9-7.85-16.45-15.01-25-22.17a365.97 365.97 0 0 0-47.95-32.75 328.38 328.38 0 0 0-48.03-23.19 265.35 265.35 0 0 0-23.03-8.19 227.69 227.69 0 0 0-25-6.82c-7.57-1.7-15.14-3.41-23.04-4.77-8.22-1.37-16.78-2.39-25-3.42-7.57-.68-15.13-1.36-23.03-1.7v23.88c16.13.49 32.19 2.32 48.03 5.45 7.9 1.37 15.47 3.07 23.03 5.12a304.77 304.77 0 0 1 48.04 16.37 339.3 339.3 0 0 1 25 11.94 327.35 327.35 0 0 1 48.03 30.7 609 609 0 0 1 23.03 18.76 292.23 292.23 0 0 1 24.92 24.89 310.35 310.35 0 0 1 23.03 27.97 333.56 333.56 0 0 1 25 38.55 367.24 367.24 0 0 1 48.04 179.66l-.99 250.95h23.36Zm-48.36 0 .99-251.29c-.33 0-.66-.34-1-.68h1a338.36 338.36 0 0 0-23.03-120.4 337.38 337.38 0 0 0-48.04-85.28 333.16 333.16 0 0 0-48.03-50.39 272.97 272.97 0 0 0-24.92-19.1 536.26 536.26 0 0 0-23.03-14.67 350.25 350.25 0 0 0-25-12.96c-7.57-3.41-15.14-6.82-23.03-9.55a307.18 307.18 0 0 0-48.04-13.64c-8.22-1.71-16.78-2.73-25-3.75a476.1 476.1 0 0 0-23.03-1.71v23.88a294.2 294.2 0 0 1 48.03 5.79c7.9 1.71 15.47 3.76 23.03 5.8 8.5 2.44 16.85 5.4 25 8.87a283.73 283.73 0 0 1 96.07 62.42 317.23 317.23 0 0 1 23.03 24.56 288.64 288.64 0 0 1 24.92 34.79c8.89 13.98 16.45 28.99 23.03 44.34a313.47 313.47 0 0 1 25 120.66l-1.31 252.31h23.36Zm-287.05 0v-23.53c-16.15.83-32.21 3-48.03 6.48a256.8 256.8 0 0 0-49.6 17.05h97.63Zm-148.37 0 4.6-3.07a281.52 281.52 0 0 1 48.04-24.56 217.23 217.23 0 0 1 25-8.86c7.57-2.05 15.05-4.1 23.03-5.8a299.21 299.21 0 0 1 24.92-4.1c7.57-.68 15.13-1.36 23.03-1.7v-23.88c-7.9.34-15.46 1.03-23.03 1.71-8.23 1.02-16.78 2.04-25 3.75a307.93 307.93 0 0 0-71.07 23.19A647.2 647.2 0 0 0 0 2025.09v21.4h7.9ZM0 1994.48c4.11-2.39 24.67-13.82 33.23-17.57 7.57-3.41 19.4-8.53 27.3-11.26a304.31 304.31 0 0 1 47.96-12.62 293.93 293.93 0 0 1 48.03-5.45v-23.88c-7.9 0-15.46.68-23.03 1.37-8.23 1.02-16.78 2.04-25 3.41-7.9 1.36-15.38 3.07-23.03 4.77-8.23 2.05-16.7 4.1-24.92 6.82-7.9 2.39-19.74 7.51-27.31 10.58-8.56 3.41-29.12 13.64-33.23 15.86v27.97Zm0-56.54c4.11-2.04 11.76-5.97 15.96-7.84 8.22-3.75 13-6.4 21.55-9.38a457.82 457.82 0 0 1 48.03-13.99c7.57-1.7 15.05-3.07 23.03-4.43a294.1 294.1 0 0 1 24.92-3.07c7.57-.68 15.13-1.02 23.03-1.37v-23.87c-7.57.34-15.46.68-23.03 1.36a318.2 318.2 0 0 0-25 3.07 334.67 334.67 0 0 0-48.04 10.24 278.32 278.32 0 0 0-23.03 7.16c-8.22 3.07-13.16 5.29-21.38 8.7-4.28 1.87-11.93 5.62-16.04 7.5v25.92Zm0-55.51c3.95-1.7 11.52-5.29 15.63-6.82 8.22-3.16 13-5.37 21.55-8.1 7.56-2.73 15.13-4.78 23.03-6.82 8.22-2.05 16.45-4.1 25-5.8 7.57-1.37 15.05-2.73 23.03-3.75a559.16 559.16 0 0 1 24.92-2.73c7.57-.68 15.46-1.03 23.03-1.37v-23.87c-7.57.34-15.46.68-23.03 1.36a468.38 468.38 0 0 0-48.03 6.48c-8.23 1.71-16.7 3.41-24.92 5.46a458.2 458.2 0 0 0-23.03 6.48c-8.23 2.73-13.33 4.69-21.55 7.67-4.11 1.45-11.68 4.78-15.63 6.4v25.41Zm879.4-40.16v-562.62a271.43 271.43 0 0 1 25-107.44v656.42a589.73 589.73 0 0 0-25 13.64Zm48.03-24.56v-685.32a279.67 279.67 0 0 1 25-30.7v705.45a556.7 556.7 0 0 0-25 10.57Zm-914.6-18.76v-717.89c7.9-6.48 16.45-13.47 25-18.93v729.32a533.98 533.98 0 0 0-25 7.5Zm48.36-13.64v-736.14c8.23-4.1 16.45-7.51 25-10.58v741.86c-8.55 1.36-16.77 3.07-25 4.77v.09ZM0 1029.21c2.96-2.04 4.94-4.09 7.9-5.96H0v5.96Zm1920.68 1017.28v-21.4c-2.72 1.7-5.51 3.49-8.23 5.37-7.24 4.95-12.75 10.32-19.57 16.03h27.8Zm-68.02 0c3.78-3.75 7.73-7.33 11.76-10.91a623.16 623.16 0 0 1 23.03-18.76 330.87 330.87 0 0 1 25-17.4l8.23-4.94v-27.97l-8.23 4.6a368.03 368.03 0 0 0-73.03 54.92c-6.67 6.65-13.74 13.38-19.99 20.46h33.23Zm-65.8 0 4.6-5.46a388.54 388.54 0 0 1 47.96-49.11 359.48 359.48 0 0 1 25-19.78 343.14 343.14 0 0 1 48.03-30.02l8.23-4.26v-25.84l-8.23 3.92a353.06 353.06 0 0 0-25 13.22 326.25 326.25 0 0 0-23.03 14.32 315.41 315.41 0 0 0-25 18.08 433.38 433.38 0 0 0-82.01 84.93h29.45Zm-60.29 0c5.51-8.35 10.45-16.37 16.45-24.22a423.61 423.61 0 0 1 48.12-53.54 535.62 535.62 0 0 1 24.92-22.18 600.6 600.6 0 0 1 23.03-17.73 645.17 645.17 0 0 1 25-16.63 312.86 312.86 0 0 1 23.03-13.3c8.22-4.44 16.45-8.87 25-12.62l8.56-3.84v-25.41l-8.56 3.67a411.23 411.23 0 0 0-73.03 39.9 471.59 471.59 0 0 0-48.04 36.84 477.94 477.94 0 0 0-47.95 48.35 626.74 626.74 0 0 0-23.03 28.99c-7.56 10.23-14.06 20.81-20.89 31.72h27.39Zm-59.71 0 2.88-5.11c7.24-11.94 14.8-23.88 23.03-35.14a486.07 486.07 0 0 1 48.03-57.98 562.6 562.6 0 0 1 25-24.22 415.63 415.63 0 0 1 23.03-19.35c8.23-6.48 16.45-12.96 24.92-18.76 7.57-5.12 15.14-10.24 23.03-15.35a608.98 608.98 0 0 1 25.01-14.67 485.39 485.39 0 0 1 23.03-11.59 553.43 553.43 0 0 1 35.86-15.27v-767.43l-8.56 7.33a251.38 251.38 0 0 0-25 25.24 289.44 289.44 0 0 0-23.03 30.36c-30.16 45.92-46.84 99.91-48.03 155.45v576.94a416.6 416.6 0 0 0-24.92 17.73v-593.99a317.3 317.3 0 0 1 26.03-121.1 307.71 307.71 0 0 1 70.03-100.61c7.82-7.41 14.23-14.75 22.78-21.31 2.88-2.14 7.82-6.4 10.7-8.45v-5.96h-27.8a348.49 348.49 0 0 0-28.79 26.26 336.76 336.76 0 0 0-48.03 62.42 318.86 318.86 0 0 0-24.92 51.42 341.1 341.1 0 0 0-23.03 116.3v613.1a400.29 400.29 0 0 0-25.01 22.51v-636.97c.99-43.5 9.46-86.47 25.01-126.88a358.1 358.1 0 0 1 47.95-86.55 360.81 360.81 0 0 1 36.6-41.61h-33.23l-3.29 3.75a385.8 385.8 0 0 0-73.04 125.17 396.38 396.38 0 0 0-23.03 125.44v660.84a591.32 591.32 0 0 0-25 29v-689.5a428.78 428.78 0 0 1 25-135.67 408.78 408.78 0 0 1 23.03-52.18 471.1 471.1 0 0 1 25.01-41.61 371.34 371.34 0 0 1 18.75-25.24h-29.45a477.2 477.2 0 0 0-37.34 60.71 448.57 448.57 0 0 0-48.03 193.99v720.53a497.49 497.49 0 0 0-25 39.74v-760.36a475.4 475.4 0 0 1 48.03-200.13 535.73 535.73 0 0 1 25-44.68l6.5-9.8h-27.39l-4.11 6.82a478.3 478.3 0 0 0-48.03 106.42 502.71 502.71 0 0 0-23.03 141.8v768.2h42.85Zm-70.49 0 2.63-768.88a529.9 529.9 0 0 1 48.04-211.73c6.74-14.49 11.92-28.82 19.74-42.63h-42.77l-2.63 37.51a527.54 527.54 0 0 0-25.01 67.2v-104.71h-23.03v616.84a582.72 582.72 0 0 0-24.92-67.53v-549.31h-23.36v503.94c-7.89-13.64-16.12-27.28-25-40.24v-463.7h-23.03v432.66a521.86 521.86 0 0 0-25-28.99v-403.67h-23.36v380.56a514.56 514.56 0 0 0-25.01-22.51v-358.05h-23.35v339.63a669.4 669.4 0 0 0-25.01-17.74v-321.89h-20.07v307.82c-8.22-4.69-16.45-9.46-25-13.64v-294.18h-23.28v283.01c-8.22-3.75-16.77-7.16-25-10.57v-272.44h-23.03v264.25c-8.22-2.73-16.78-5.12-25-7.5v-256.75h-23.03v251.29a647.2 647.2 0 0 0-25.01-4.78v-246.51h-24.34v242.76c-8.23-1.02-16.78-1.7-25-2.39v-240.37h-97.55c-7.32 3.24-14.39 7.07-21.47 10.91-8.55 4.78-16.45 11.17-24.43 17.05-4.1 2.9-8.8 7.25-12.74 10.49v767.44a707.08 707.08 0 0 1 37.17-12.11l23.03-6.14a468.62 468.62 0 0 1 96.07-11.94v-260.16a295.1 295.1 0 0 1 24.92 5.12v502.58h24.34v-496.44a207.24 207.24 0 0 1 25.01 10.91v485.53h23.03v-472.91a189.78 189.78 0 0 1 25 18.42v454.49h23.03v-433.34a245.32 245.32 0 0 1 25 30.69v402.65h23.28v-362.4a268.36 268.36 0 0 1 25 110.43v251.97h20.07l1.32-252.31a289.82 289.82 0 0 0-23.03-110.86c-24.41-58.51-67-106.86-120.99-137.37a291.43 291.43 0 0 0-48.03-21.48 254.58 254.58 0 0 0-71.06-12.97v263.58c-8.56.68-16.78 1.36-25.01 2.38v-746.03a296.74 296.74 0 0 1 25.01-5.11v260.16l23.03 1.02a467.6 467.6 0 0 1 48.03 5.8c8.4 1.34 16.74 3.05 25 5.11 7.9 1.71 15.46 3.76 23.03 6.14a465.21 465.21 0 0 1 48.03 16.38 484.33 484.33 0 0 1 48.04 22.51 606 606 0 0 1 24.92 14.66c7.87 4.8 15.55 9.92 23.03 15.35a698.9 698.9 0 0 1 25 18.76c7.9 6.14 15.46 12.96 23.03 19.36a570.77 570.77 0 0 1 25 24.21 465.93 465.93 0 0 1 48.04 57.99 498.7 498.7 0 0 1 48.03 83.22 527.19 527.19 0 0 1 48.03 216.59l-.49 252.83 23.11.08Zm-47.95 0 .33-253c-.78-117.99-43.14-231.63-119.1-319.5a475.48 475.48 0 0 0-48.03-48.44 467.18 467.18 0 0 0-95.98-65.06 410.8 410.8 0 0 0-25.01-11.6 270.81 270.81 0 0 0-23.03-9.21c-8.22-3.07-16.77-5.79-25-8.52a447.6 447.6 0 0 0-23.03-6.48c-8.22-2.05-16.78-3.75-25-5.46a468.64 468.64 0 0 0-48.03-6.48c-7.57-.68-15.47-1.02-23.03-1.37v23.88c7.56.34 15.46.68 23.03 1.36 8.35.73 16.68 1.64 25 2.73a468.9 468.9 0 0 1 23.03 3.76 538.44 538.44 0 0 1 25 5.79c7.9 2.05 15.46 4.1 23.03 6.83a528.85 528.85 0 0 1 25 8.86 459.6 459.6 0 0 1 23.03 9.9c8.56 3.75 16.78 8.18 25.01 12.62a311.35 311.35 0 0 1 23.03 13.3 653.63 653.63 0 0 1 24.92 16.62 615.3 615.3 0 0 1 23.03 17.74 540.7 540.7 0 0 1 25 22.17 423.7 423.7 0 0 1 48.03 53.55c8.23 10.57 15.8 21.83 23.03 33.09a455.65 455.65 0 0 1 25.01 44.68 473.39 473.39 0 0 1 48.03 205.24l-.66 253h23.36Zm-48.36 0 .66-252.31c-.78-99.79-34.7-196.25-96.07-273.13a434.94 434.94 0 0 0-71.06-70.6 436.11 436.11 0 0 0-25-18.42 295.18 295.18 0 0 0-23.03-14.32 477.05 477.05 0 0 0-48.04-23.88c-8.22-3.41-16.69-6.39-24.92-9.46a259.62 259.62 0 0 0-23.03-7.17c-15.76-4.58-31.81-8-48.03-10.23a314.02 314.02 0 0 0-25-3.07c-7.57-.68-15.47-1.02-23.03-1.36v23.87c7.68.28 15.36.73 23.03 1.37 8.55.68 16.77 1.7 25 3.07a464.98 464.98 0 0 1 23.03 4.43 455.3 455.3 0 0 1 48.03 13.99 318.84 318.84 0 0 1 25 10.23 364.38 364.38 0 0 1 48.04 25.58c7.89 4.69 15.46 10.23 23.03 15.6a362.27 362.27 0 0 1 47.95 41.27 387.64 387.64 0 0 1 25 27.63 403.92 403.92 0 0 1 48.03 71.97 407.3 407.3 0 0 1 23.03 52.19 422.59 422.59 0 0 1 25.01 140.44l-.66 252.31h23.03Zm-48.03 0 .65-251.97a392.53 392.53 0 0 0-48.03-185.89 394.2 394.2 0 0 0-48.03-69.16c-7.24-8.52-15.14-16.37-23.03-24.21-7.9-7.85-16.45-15.01-25-22.17a365.87 365.87 0 0 0-47.96-32.75 328.1 328.1 0 0 0-48.03-23.19 265.23 265.23 0 0 0-23.03-8.19 227.64 227.64 0 0 0-25-6.82c-7.57-1.7-15.14-3.41-23.03-4.77-8.23-1.37-16.78-2.39-25-3.41a476.96 476.96 0 0 0-23.03-1.71v23.88a294 294 0 0 1 48.03 5.45 253.16 253.16 0 0 1 23.03 5.12 304.84 304.84 0 0 1 48.03 16.37 336.55 336.55 0 0 1 25 11.94 327.8 327.8 0 0 1 48.04 30.7 605.83 605.83 0 0 1 23.03 18.76 292.65 292.65 0 0 1 24.92 24.89 311.72 311.72 0 0 1 23.03 27.97 333.92 333.92 0 0 1 25 38.55 367.17 367.17 0 0 1 48.03 179.66l-.98 250.95h23.36Zm-48.37 0 .99-251.29c-.33 0-.66-.34-.99-.68h.99a338.3 338.3 0 0 0-23.03-120.4 337.26 337.26 0 0 0-48.03-85.27 333.23 333.23 0 0 0-48.03-50.4 272 272 0 0 0-24.93-19.1 529.51 529.51 0 0 0-23.03-14.67 347.85 347.85 0 0 0-25-12.96c-7.57-3.41-15.13-6.82-23.03-9.55a307.27 307.27 0 0 0-48.03-13.64c-8.23-1.71-16.78-2.73-25-3.75a476.96 476.96 0 0 0-23.03-1.71v23.88c16.13.61 32.19 2.54 48.03 5.8 7.89 1.7 15.46 3.75 23.03 5.79a216.5 216.5 0 0 1 25 8.87 283.79 283.79 0 0 1 96.07 62.42 318.59 318.59 0 0 1 23.03 24.56 289.07 289.07 0 0 1 24.92 34.79c8.88 13.98 16.45 28.99 23.03 44.34a313.58 313.58 0 0 1 25 120.66l-1.31 252.31h23.35Zm-287.04 0v-23.53c-16.15.83-32.22 3-48.04 6.48a256.77 256.77 0 0 0-49.59 17.05h97.63Zm-148.38 0 4.6-3.07a281.43 281.43 0 0 1 48.04-24.56 217.79 217.79 0 0 1 25-8.86c7.57-2.05 15.06-4.1 23.03-5.8a299.15 299.15 0 0 1 24.93-4.1c7.56-.68 15.13-1.36 23.02-1.7v-23.88c-7.89.34-15.46 1.03-23.02 1.71-8.23 1.02-16.78 2.05-25.01 3.75a307.86 307.86 0 0 0-71.06 23.19 647.25 647.25 0 0 0-37.42 21.92v21.4h7.9Zm-7.9-52.01c4.12-2.39 24.68-13.82 33.23-17.57 7.57-3.41 19.41-8.53 27.31-11.25a302.24 302.24 0 0 1 47.95-12.62 292.93 292.93 0 0 1 48.03-5.46v-23.88c-7.89 0-15.46.68-23.02 1.37-8.23 1.02-16.78 2.04-25.01 3.41-7.89 1.36-15.38 3.07-23.03 4.77-8.22 2.05-16.69 4.1-24.92 6.82-7.9 2.39-19.74 7.51-27.3 10.58-8.56 3.41-29.12 13.64-33.23 15.86v27.97Zm0-56.54c4.12-2.04 11.77-5.97 15.96-7.84 8.23-3.75 13-6.4 21.55-9.38a458.3 458.3 0 0 1 48.03-13.99 447.8 447.8 0 0 1 23.03-4.43 298.24 298.24 0 0 1 24.93-3.07c7.56-.68 15.13-1.02 23.02-1.36v-23.88c-7.56.34-15.46.68-23.02 1.36-8.23.69-16.78 1.71-25.01 3.07a334.85 334.85 0 0 0-48.03 10.24 278.76 278.76 0 0 0-23.03 7.16c-8.23 3.07-13.16 5.29-21.38 8.7-4.28 1.87-11.93 5.62-16.04 7.5v25.92Zm0-55.51c3.95-1.7 11.52-5.29 15.63-6.82 8.23-3.16 13-5.37 21.55-8.1 7.57-2.73 15.14-4.78 23.03-6.82 8.23-2.05 16.45-4.1 25.01-5.8 7.56-1.37 15.05-2.73 23.02-3.75a558.92 558.92 0 0 1 24.93-2.73c7.56-.68 15.46-1.02 23.03-1.37v-23.87c-7.57.34-15.47.68-23.03 1.36a471.24 471.24 0 0 0-48.04 6.48c-8.22 1.71-16.69 3.41-24.92 5.46a460.26 460.26 0 0 0-23.03 6.48c-8.22 2.73-13.32 4.69-21.55 7.68-4.1 1.45-11.68 4.77-15.62 6.39v25.41Zm879.4-40.16v-562.62a271.49 271.49 0 0 1 25.01-107.44v656.42a587.53 587.53 0 0 0-25.01 13.64Zm48.04-24.56v-685.32a280.7 280.7 0 0 1 25-30.7v705.45a556.09 556.09 0 0 0-25 10.57Zm-914.6-18.76v-717.89c7.9-6.48 16.45-13.47 25-18.93v729.32a533.92 533.92 0 0 0-25 7.5Zm48.36-13.64v-736.14a230.21 230.21 0 0 1 25-10.58v741.86c-8.55 1.36-16.78 3.07-25 4.77v.09Zm-61.2-756.1c2.97-2.04 4.94-4.09 7.9-5.96h-7.9v5.96Z"/><path fill="#8B0000" fill-opacity=".15" d="M960.4 1023.25v-21.41a226.3 226.3 0 0 0-8.23 5.38c-7.23 4.94-12.75 10.31-19.57 16.03h27.8Zm-68.02 0a286.3 286.3 0 0 1 11.76-10.92 623.08 623.08 0 0 1 23.03-18.76 330.71 330.71 0 0 1 25-17.4l8.23-4.94v-27.97l-8.23 4.6a368.52 368.52 0 0 0-73.03 54.92c-6.66 6.65-13.74 13.39-19.99 20.47h33.23Zm-65.8 0 4.6-5.46a387.86 387.86 0 0 1 47.96-49.12 359.47 359.47 0 0 1 25-19.78 343.18 343.18 0 0 1 48.03-30.01l8.23-4.27v-25.84l-8.23 3.93a352.5 352.5 0 0 0-25 13.21c-7.9 4.44-15.46 9.21-23.03 14.33a312.55 312.55 0 0 0-25 18.08 433.26 433.26 0 0 0-82 84.93h29.44Zm-60.29 0c5.51-8.36 10.45-16.38 16.45-24.22a424.24 424.24 0 0 1 48.12-53.55c7.81-7.5 16.45-15 24.92-22.17a597.38 597.38 0 0 1 23.03-17.74 646.05 646.05 0 0 1 25-16.63c7.57-4.77 15.14-9.2 23.03-13.3 8.23-4.43 16.45-8.87 25-12.62l8.56-3.83v-25.42l-8.55 3.67a411.28 411.28 0 0 0-73.04 39.9 477.1 477.1 0 0 0-95.98 85.19 626.62 626.62 0 0 0-23.03 29c-7.57 10.23-14.07 20.8-20.9 31.72h27.4Zm-59.71 0 2.88-5.12c7.24-11.94 14.8-23.88 23.03-35.13a485 485 0 0 1 48.03-58 562.02 562.02 0 0 1 25-24.21 414.72 414.72 0 0 1 23.03-19.36c8.23-6.48 16.45-12.96 24.93-18.76 7.56-5.11 15.13-10.23 23.02-15.35a608.2 608.2 0 0 1 25-14.66c7.58-4.1 15.14-7.85 23.04-11.6a556.23 556.23 0 0 1 35.86-15.26V38.37l-8.55 7.34a251.15 251.15 0 0 0-25 25.24 290.47 290.47 0 0 0-23.04 30.35c-30.15 45.92-46.84 99.91-48.03 155.45v576.94a419.66 419.66 0 0 0-24.92 17.74v-594a317.36 317.36 0 0 1 26.03-121.1 307.7 307.7 0 0 1 70.03-100.6c7.82-7.42 14.23-14.75 22.79-21.32 2.88-2.13 7.81-6.4 10.69-8.44V0h-27.8a336.75 336.75 0 0 0-76.82 88.68 320.15 320.15 0 0 0-24.92 51.42 341.38 341.38 0 0 0-23.03 116.3v613.1a399.16 399.16 0 0 0-25 22.51V255.04c.98-43.5 9.45-86.46 25-126.88a358.17 358.17 0 0 1 47.95-86.55A362.24 362.24 0 0 1 892.38 0h-33.23l-3.29 3.75a385.77 385.77 0 0 0-73.04 125.18 396.21 396.21 0 0 0-23.03 125.43v660.85a590.2 590.2 0 0 0-25 28.99V254.7c.97-46.35 9.42-92.2 25-135.66a408.1 408.1 0 0 1 23.03-52.19 471.97 471.97 0 0 1 25-41.61C813.74 16.56 820 8.14 826.59 0h-29.44a476.62 476.62 0 0 0-37.35 60.71 448.45 448.45 0 0 0-48.03 194v720.53a495.65 495.65 0 0 0-25 39.74V254.62A475.44 475.44 0 0 1 734.8 54.49a533.9 533.9 0 0 1 25-44.68L766.3 0h-27.4l-4.1 6.82a478.78 478.78 0 0 0-48.04 106.42 503.14 503.14 0 0 0-23.03 141.8v768.21h42.85Zm-70.49 0 2.63-768.89a529.8 529.8 0 0 1 48.04-211.72C693.5 28.14 698.68 13.8 706.5 0h-42.77l-2.63 37.52a527.67 527.67 0 0 0-25 67.2V0h-23.04v616.85a584.38 584.38 0 0 0-24.92-67.54V0h-23.36v503.95c-7.9-13.64-16.12-27.29-25-40.25V0h-23.03v432.66a517.53 517.53 0 0 0-25-28.99V0h-23.36v380.56a519.14 519.14 0 0 0-25-22.5V0h-23.36v339.63a667.91 667.91 0 0 0-25-17.73V0h-20.07v307.83c-8.23-4.7-16.45-9.47-25-13.65V0h-23.28v283.01c-8.23-3.75-16.78-7.16-25-10.57V0h-23.04v264.25c-8.22-2.73-16.78-5.11-25-7.5V0H230.6v251.3a644.95 644.95 0 0 0-25-4.78V0h-24.35v242.76c-8.22-1.02-16.78-1.7-25-2.38V0H58.7c-7.32 3.24-14.4 7.08-21.47 10.91C28.7 15.7 20.8 22.1 12.82 27.97 8.7 30.87 4.02 35.22.07 38.46v767.43a705.93 705.93 0 0 1 37.17-12.1l23.03-6.15a468.95 468.95 0 0 1 96.07-11.93V515.55a294.87 294.87 0 0 1 24.92 5.11v502.59h24.35V526.8c8.55 3.07 17.1 6.82 25 10.92v485.53h23.03V550.34a189.41 189.41 0 0 1 25 18.41v454.5h23.03V589.9a245.27 245.27 0 0 1 25 30.7v402.65h23.28v-362.4a268.4 268.4 0 0 1 25 110.42v251.98h20.07l1.32-252.32a289.66 289.66 0 0 0-23.03-110.85c-24.4-58.51-67-106.87-120.99-137.37a290.8 290.8 0 0 0-48.03-21.49 254.82 254.82 0 0 0-71.06-12.96v263.57c-8.56.68-16.78 1.37-25 2.39V8.19a295.83 295.83 0 0 1 25-5.12v260.16l23.03 1.02c16.1 1.1 32.12 3.04 48.03 5.8 8.4 1.34 16.74 3.05 25 5.12a254.8 254.8 0 0 1 23.03 6.14 465.06 465.06 0 0 1 48.04 16.37 485.03 485.03 0 0 1 48.03 22.51 609.75 609.75 0 0 1 24.92 14.67c7.87 4.8 15.55 9.92 23.03 15.35a691.89 691.89 0 0 1 25 18.76c7.9 6.13 15.47 12.96 23.03 19.35a576.65 576.65 0 0 1 25 24.22 464.74 464.74 0 0 1 48.04 57.98 498.57 498.57 0 0 1 48.03 83.23 527.23 527.23 0 0 1 48.03 216.58l-.49 252.83 23.11.09Zm-47.95 0 .33-253c-.78-118-43.14-231.63-119.1-319.51a477.09 477.09 0 0 0-48.03-48.43 467.51 467.51 0 0 0-95.98-65.06 409.39 409.39 0 0 0-25-11.6 272.05 272.05 0 0 0-23.03-9.21c-8.23-3.07-16.78-5.8-25-8.53a457.44 457.44 0 0 0-23.04-6.48c-8.22-2.05-16.78-3.75-25-5.46a468.95 468.95 0 0 0-48.03-6.48c-7.57-.68-15.47-1.02-23.03-1.36V312c7.56.34 15.46.68 23.03 1.36 8.35.72 16.69 1.63 25 2.73 7.9 1.02 15.46 2.39 23.03 3.75a543.67 543.67 0 0 1 25 5.8c7.9 2.05 15.47 4.1 23.03 6.82 8.56 2.73 16.78 5.8 25 8.87a473 473 0 0 1 23.04 9.89c8.55 3.75 16.77 8.19 25 12.62 7.9 4.1 15.46 8.53 23.03 13.3a646.03 646.03 0 0 1 24.92 16.63 601.35 601.35 0 0 1 23.03 17.74 540.12 540.12 0 0 1 25 22.17 424.1 424.1 0 0 1 48.04 53.55c8.22 10.57 15.79 21.82 23.03 33.08a456.28 456.28 0 0 1 25 44.68 473.32 473.32 0 0 1 48.03 205.25l-.66 253h23.36Zm-48.36 0 .66-252.32c-.77-99.78-34.7-196.24-96.07-273.12a434.86 434.86 0 0 0-71.06-70.6 431.74 431.74 0 0 0-25-18.42 292.23 292.23 0 0 0-23.03-14.33 477.76 477.76 0 0 0-48.04-23.87c-8.22-3.41-16.7-6.4-24.92-9.47a259.11 259.11 0 0 0-23.03-7.16 334.8 334.8 0 0 0-48.03-10.23 312.18 312.18 0 0 0-25-3.07c-7.57-.69-15.47-1.03-23.03-1.37v23.88c7.68.27 15.36.73 23.03 1.36 8.55.68 16.78 1.7 25 3.07 7.9 1.37 15.46 2.73 23.03 4.44a455.86 455.86 0 0 1 48.03 13.98c8.47 3.06 16.81 6.47 25 10.23a365.47 365.47 0 0 1 48.04 25.58c7.9 4.7 15.46 10.24 23.03 15.6a361.02 361.02 0 0 1 47.95 41.28c8.76 8.79 17.1 18 25 27.63a403.97 403.97 0 0 1 48.04 71.96 408.58 408.58 0 0 1 23.03 52.19 422.67 422.67 0 0 1 25 140.44l-.66 252.32h23.03Zm-48.03 0 .66-251.98a392.63 392.63 0 0 0-96.07-255.04c-7.24-8.53-15.13-16.37-23.03-24.22-7.9-7.84-16.45-15-25-22.17a366.72 366.72 0 0 0-47.95-32.74 328.6 328.6 0 0 0-48.04-23.2 265.09 265.09 0 0 0-23.03-8.18 227.04 227.04 0 0 0-25-6.82 459.3 459.3 0 0 0-23.03-4.78c-8.22-1.36-16.78-2.39-25-3.41-7.57-.68-15.14-1.36-23.03-1.7v23.87c16.12.5 32.18 2.32 48.03 5.46 7.9 1.36 15.46 3.07 23.03 5.11a304.68 304.68 0 0 1 48.03 16.38 339.9 339.9 0 0 1 25 11.93 327.28 327.28 0 0 1 48.04 30.7 620.9 620.9 0 0 1 23.03 18.76 292.92 292.92 0 0 1 24.92 24.9 310.1 310.1 0 0 1 23.03 27.97 333.62 333.62 0 0 1 25 38.54 367.27 367.27 0 0 1 48.04 179.66l-1 250.96h23.37Zm-48.36 0 .98-251.3c-.33 0-.66-.34-.98-.68h.98a338.42 338.42 0 0 0-23.03-120.4 337.27 337.27 0 0 0-48.03-85.27 332.96 332.96 0 0 0-48.03-50.4 272.27 272.27 0 0 0-24.92-19.1 535.8 535.8 0 0 0-23.03-14.66 349.06 349.06 0 0 0-25-12.96c-7.57-3.41-15.14-6.83-23.04-9.55a307.15 307.15 0 0 0-48.03-13.65c-8.22-1.7-16.78-2.73-25-3.75-7.57-.68-15.14-1.36-23.03-1.7v23.87a294 294 0 0 1 48.03 5.8c7.9 1.7 15.46 3.75 23.03 5.8 8.5 2.44 16.85 5.4 25 8.87a283.73 283.73 0 0 1 96.07 62.41 318.84 318.84 0 0 1 23.03 24.56 289.4 289.4 0 0 1 24.92 34.8c8.88 13.98 16.45 28.98 23.03 44.33a313.5 313.5 0 0 1 25 120.66l-1.31 252.32h23.36Zm-287.05 0v-23.54c-16.15.84-32.21 3-48.03 6.48a256.84 256.84 0 0 0-49.6 17.06h97.63Zm-148.38 0 4.61-3.07a281.6 281.6 0 0 1 48.03-24.56 218.42 218.42 0 0 1 25-8.87c7.57-2.05 15.06-4.1 23.04-5.8 8.22-1.7 16.44-3.07 24.92-4.1 7.56-.67 15.13-1.36 23.03-1.7v-23.87c-7.9.34-15.47 1.02-23.03 1.7-8.23 1.03-16.78 2.05-25 3.75a307.8 307.8 0 0 0-71.07 23.2 645.9 645.9 0 0 0-37.42 21.91v21.41h7.9Zm-7.9-52.02c4.12-2.39 24.68-13.81 33.24-17.56 7.56-3.41 19.4-8.53 27.3-11.26a303.45 303.45 0 0 1 47.95-12.62 293.94 293.94 0 0 1 48.04-5.46v-23.87c-7.9 0-15.47.68-23.03 1.36-8.23 1.02-16.78 2.05-25 3.41-7.9 1.37-15.39 3.07-23.04 4.78-8.22 2.04-16.7 4.09-24.92 6.82-7.9 2.39-19.74 7.5-27.3 10.57-8.56 3.41-29.12 13.65-33.23 15.86v27.97Zm0-56.53c4.12-2.05 11.77-5.97 15.96-7.85 8.23-3.75 13-6.4 21.55-9.38a455.87 455.87 0 0 1 48.04-13.98c7.56-1.7 15.05-3.07 23.03-4.44a297.37 297.37 0 0 1 24.92-3.07c7.56-.68 15.13-1.02 23.03-1.36v-23.88c-7.57.35-15.47.69-23.03 1.37a313.1 313.1 0 0 0-25 3.07 334.65 334.65 0 0 0-48.04 10.23 280.25 280.25 0 0 0-23.03 7.16c-8.22 3.07-13.16 5.29-21.38 8.7-4.28 1.88-11.93 5.63-16.04 7.5v25.93Zm0-55.51c3.96-1.71 11.52-5.3 15.63-6.83 8.23-3.15 13-5.37 21.55-8.1 7.57-2.73 15.14-4.77 23.03-6.82 8.23-2.05 16.45-4.1 25-5.8 7.57-1.36 15.06-2.73 23.04-3.75a571.17 571.17 0 0 1 24.92-2.73c7.56-.68 15.46-1.02 23.03-1.36v-23.88c-7.57.34-15.47.69-23.03 1.37a468.97 468.97 0 0 0-48.04 6.48c-8.22 1.7-16.7 3.4-24.92 5.46-7.9 2.04-15.46 4.09-23.03 6.48-8.22 2.72-13.32 4.69-21.55 7.67-4.1 1.45-11.67 4.77-15.62 6.4v25.4Zm879.4-40.17V256.41a271.4 271.4 0 0 1 25.01-107.44v656.41a593.75 593.75 0 0 0-25 13.64Zm48.04-24.55V109.14a279 279 0 0 1 25-30.7v705.44a556.77 556.77 0 0 0-25 10.58ZM12.9 775.7V57.8c7.9-6.48 16.45-13.47 25-18.93V768.2a536.4 536.4 0 0 0-25 7.5Zm48.36-13.65V25.92c8.23-4.09 16.45-7.5 25-10.57V757.2a544.56 544.56 0 0 0-25 4.78v.08ZM.06 5.96C3.04 3.93 5 1.89 7.97 0H.06v5.97Z"/><path fill="#8B0000" fill-opacity=".15" d="M1920.68 1023.25v-21.41c-2.72 1.71-5.51 3.5-8.23 5.38-7.24 4.94-12.75 10.31-19.57 16.03h27.8Zm-68.02 0a284.3 284.3 0 0 1 11.76-10.92 622.09 622.09 0 0 1 23.03-18.76 329.95 329.95 0 0 1 25-17.4l8.23-4.94v-27.97l-8.23 4.6a368.11 368.11 0 0 0-73.03 54.92c-6.67 6.65-13.74 13.39-19.99 20.47h33.23Zm-65.8 0 4.6-5.46a387.86 387.86 0 0 1 47.96-49.12 358.92 358.92 0 0 1 25-19.78 343.2 343.2 0 0 1 48.03-30.01l8.23-4.27v-25.84l-8.23 3.93a352.2 352.2 0 0 0-25 13.21c-7.9 4.44-15.46 9.21-23.03 14.33a312.12 312.12 0 0 0-25 18.08 433.23 433.23 0 0 0-82.01 84.93h29.45Zm-60.29 0c5.51-8.36 10.45-16.38 16.45-24.22a423.91 423.91 0 0 1 48.12-53.55c7.81-7.5 16.45-15 24.92-22.17a588.8 588.8 0 0 1 23.03-17.74 642.83 642.83 0 0 1 25-16.63c7.57-4.77 15.13-9.2 23.03-13.3 8.22-4.43 16.45-8.87 25-12.62l8.56-3.83v-25.42l-8.56 3.67a411.26 411.26 0 0 0-73.03 39.9 470.55 470.55 0 0 0-48.04 36.84 478.23 478.23 0 0 0-47.95 48.35 630.56 630.56 0 0 0-23.03 29c-7.56 10.23-14.06 20.8-20.89 31.72h27.39Zm-59.71 0 2.88-5.12c7.24-11.94 14.8-23.88 23.03-35.13a485.7 485.7 0 0 1 48.03-58 560.82 560.82 0 0 1 25-24.21 414.01 414.01 0 0 1 23.03-19.36c8.23-6.48 16.45-12.96 24.92-18.76 7.57-5.11 15.14-10.23 23.03-15.35 8.23-5.11 16.45-9.89 25.01-14.66a484.5 484.5 0 0 1 23.03-11.6 555.03 555.03 0 0 1 35.86-15.26V38.37l-8.56 7.34a251 251 0 0 0-25 25.24 290.14 290.14 0 0 0-23.03 30.35c-30.16 45.92-46.84 99.91-48.03 155.45v576.94a415.79 415.79 0 0 0-24.92 17.74v-594a317.27 317.27 0 0 1 26.03-121.1 307.75 307.75 0 0 1 70.03-100.6c7.82-7.42 14.23-14.75 22.78-21.32 2.88-2.13 7.82-6.4 10.7-8.44V0h-27.8a349.4 349.4 0 0 0-28.79 26.26 336.77 336.77 0 0 0-48.03 62.42 319.48 319.48 0 0 0-24.92 51.42 341.14 341.14 0 0 0-23.03 116.3v613.1a398.75 398.75 0 0 0-25.01 22.51V255.04a377.4 377.4 0 0 1 25.01-126.88 358.17 358.17 0 0 1 47.95-86.55A362.04 362.04 0 0 1 1852.66 0h-33.23l-3.29 3.75a385.8 385.8 0 0 0-73.04 125.18 396.3 396.3 0 0 0-23.03 125.43v660.85a594.41 594.41 0 0 0-25 28.99V254.7c.97-46.35 9.42-92.2 25-135.66a408.75 408.75 0 0 1 23.03-52.19 472.03 472.03 0 0 1 25.01-41.61A373.7 373.7 0 0 1 1786.86 0h-29.45a477.75 477.75 0 0 0-37.34 60.71 448.56 448.56 0 0 0-48.03 194v720.53a496.07 496.07 0 0 0-25 39.73V254.62a475.37 475.37 0 0 1 48.03-200.13 534.99 534.99 0 0 1 25-44.68l6.5-9.81h-27.39l-4.11 6.82a478.5 478.5 0 0 0-48.03 106.42 502.79 502.79 0 0 0-23.03 141.8v768.21h42.85Zm-70.49 0 2.63-768.89a529.88 529.88 0 0 1 48.04-211.72c6.74-14.5 11.92-28.83 19.74-42.64h-42.77l-2.63 37.52a527.58 527.58 0 0 0-25.01 67.2V0h-23.03v616.85a582.65 582.65 0 0 0-24.92-67.54V0h-23.36v503.95c-7.89-13.64-16.12-27.29-25-40.25V0h-23.03v432.66a520.82 520.82 0 0 0-25-28.99V0h-23.36v380.56a518.78 518.78 0 0 0-25.01-22.5V0h-23.35v339.63a668.17 668.17 0 0 0-25.01-17.73V0h-20.07v307.83c-8.22-4.7-16.45-9.47-25-13.65V0h-23.28v283.01c-8.22-3.75-16.77-7.16-25-10.57V0h-23.03v264.25c-8.22-2.73-16.78-5.11-25-7.5V0h-23.03v251.3a645.23 645.23 0 0 0-25.01-4.78V0h-24.34v242.76c-8.23-1.02-16.78-1.7-25-2.38V0h-97.55c-7.32 3.24-14.39 7.08-21.47 10.91-8.55 4.78-16.45 11.18-24.43 17.06-4.1 2.9-8.8 7.25-12.74 10.49v767.43a705.21 705.21 0 0 1 37.17-12.1l23.03-6.15a468.82 468.82 0 0 1 96.07-11.93V515.55a295.07 295.07 0 0 1 24.92 5.11v502.59h24.34V526.8a206.79 206.79 0 0 1 25.01 10.92v485.53h23.03V550.34a189.5 189.5 0 0 1 25 18.41v454.5h23.03V589.9a244.97 244.97 0 0 1 25 30.7v402.65h23.28v-362.4a268.35 268.35 0 0 1 25 110.42v251.98h20.07l1.32-252.32a289.79 289.79 0 0 0-23.03-110.85c-24.41-58.51-67-106.87-120.99-137.37a290.8 290.8 0 0 0-48.03-21.49 254.79 254.79 0 0 0-71.06-12.96v263.57a565.9 565.9 0 0 0-25.01 2.39V8.19a295.9 295.9 0 0 1 25.01-5.12v260.16l23.03 1.02a468.98 468.98 0 0 1 48.03 5.8c8.4 1.34 16.74 3.05 25 5.12 7.9 1.7 15.46 3.75 23.03 6.14a465.4 465.4 0 0 1 48.03 16.37 485.7 485.7 0 0 1 48.04 22.51 617.71 617.71 0 0 1 24.92 14.67c7.87 4.8 15.55 9.92 23.03 15.35a690.6 690.6 0 0 1 25 18.76c7.9 6.13 15.46 12.96 23.03 19.35a570.35 570.35 0 0 1 25 24.22 465.15 465.15 0 0 1 48.04 57.98 498.63 498.63 0 0 1 48.03 83.23 527.15 527.15 0 0 1 48.03 216.58l-.49 252.83 23.11.09Zm-47.95 0 .33-253c-.78-118-43.14-231.63-119.1-319.51a475.83 475.83 0 0 0-48.03-48.43 467.42 467.42 0 0 0-95.98-65.06 409.53 409.53 0 0 0-25.01-11.6 270.14 270.14 0 0 0-23.03-9.21c-8.22-3.07-16.77-5.8-25-8.53a456.9 456.9 0 0 0-23.03-6.48c-8.22-2.05-16.78-3.75-25-5.46a469.2 469.2 0 0 0-48.03-6.48c-7.57-.68-15.47-1.02-23.03-1.36V312c7.56.34 15.46.68 23.03 1.36 8.35.72 16.68 1.63 25 2.73a466.58 466.58 0 0 1 23.03 3.75 543.71 543.71 0 0 1 25 5.8c7.9 2.05 15.46 4.1 23.03 6.82 8.56 2.73 16.78 5.8 25 8.87 7.9 3.07 15.47 6.48 23.03 9.89 8.56 3.75 16.78 8.19 25.01 12.62a313.9 313.9 0 0 1 23.03 13.3 650.26 650.26 0 0 1 24.92 16.63 603.73 603.73 0 0 1 23.03 17.74 539.53 539.53 0 0 1 25 22.17 423.7 423.7 0 0 1 48.03 53.55c8.23 10.57 15.8 21.82 23.03 33.08a456.94 456.94 0 0 1 25.01 44.68 473.41 473.41 0 0 1 48.03 205.25l-.66 253h23.36Zm-48.36 0 .66-252.32c-.78-99.78-34.7-196.24-96.07-273.12a434.97 434.97 0 0 0-71.06-70.6 435.12 435.12 0 0 0-25-18.42 294.95 294.95 0 0 0-23.03-14.33 478.5 478.5 0 0 0-48.04-23.87c-8.22-3.41-16.69-6.4-24.92-9.47a258.6 258.6 0 0 0-23.03-7.16c-15.76-4.59-31.81-8-48.03-10.23a313.1 313.1 0 0 0-25-3.07c-7.57-.69-15.47-1.03-23.03-1.37v23.88c7.68.27 15.36.73 23.03 1.36 8.55.68 16.77 1.7 25 3.07a464.96 464.96 0 0 1 23.03 4.44 455.98 455.98 0 0 1 48.03 13.98 320.41 320.41 0 0 1 25 10.23 364.98 364.98 0 0 1 48.04 25.58c7.89 4.7 15.46 10.24 23.03 15.6a361.4 361.4 0 0 1 47.95 41.28c8.76 8.79 17.1 18 25 27.63a403.8 403.8 0 0 1 48.03 71.96 407.6 407.6 0 0 1 23.03 52.19 422.6 422.6 0 0 1 25.01 140.44l-.66 252.32h23.03Zm-48.03 0 .65-251.98a392.55 392.55 0 0 0-48.03-185.89 394.12 394.12 0 0 0-48.03-69.15c-7.24-8.53-15.14-16.37-23.03-24.22-7.9-7.84-16.45-15-25-22.17a366.61 366.61 0 0 0-47.96-32.74 328.33 328.33 0 0 0-48.03-23.2 264.54 264.54 0 0 0-23.03-8.18 227.2 227.2 0 0 0-25-6.83c-7.57-1.7-15.14-3.4-23.03-4.77-8.23-1.36-16.78-2.39-25-3.41a487.44 487.44 0 0 0-23.03-1.7v23.87c16.12.5 32.18 2.32 48.03 5.46a252.48 252.48 0 0 1 23.03 5.11 304.95 304.95 0 0 1 48.03 16.38 337.33 337.33 0 0 1 25 11.93 327.61 327.61 0 0 1 48.04 30.7 617.64 617.64 0 0 1 23.03 18.76 293.34 293.34 0 0 1 24.92 24.9 311.14 311.14 0 0 1 23.03 27.97 333.91 333.91 0 0 1 25 38.54 367.21 367.21 0 0 1 48.03 179.66l-.98 250.96h23.36Zm-48.37 0 .99-251.3c-.33 0-.66-.34-.99-.68h.99a338.35 338.35 0 0 0-23.03-120.4 337.44 337.44 0 0 0-48.03-85.27 333.53 333.53 0 0 0-48.03-50.4 271.29 271.29 0 0 0-24.93-19.1 528.51 528.51 0 0 0-23.03-14.66 347.05 347.05 0 0 0-25-12.96c-7.57-3.42-15.13-6.83-23.03-9.55a307.07 307.07 0 0 0-48.03-13.65c-8.23-1.7-16.78-2.73-25-3.75-7.57-.68-15.14-1.36-23.03-1.7v23.87c16.13.61 32.19 2.55 48.03 5.8 7.89 1.7 15.46 3.75 23.03 5.8 8.5 2.44 16.84 5.4 25 8.87a283.78 283.78 0 0 1 96.07 62.41 320.04 320.04 0 0 1 23.03 24.56 289.95 289.95 0 0 1 24.92 34.8c8.88 13.98 16.45 28.98 23.03 44.33a313.58 313.58 0 0 1 25 120.66l-1.31 252.32h23.35Zm-287.04 0v-23.54c-16.15.83-32.22 3-48.04 6.48a256.8 256.8 0 0 0-49.59 17.06h97.63Zm-148.38 0 4.6-3.07a281.59 281.59 0 0 1 48.04-24.56 219.37 219.37 0 0 1 25-8.87c7.57-2.05 15.06-4.1 23.03-5.8a297.9 297.9 0 0 1 24.93-4.1c7.56-.67 15.13-1.36 23.02-1.7v-23.87c-7.89.34-15.46 1.02-23.02 1.7-8.23 1.03-16.78 2.05-25.01 3.75a307.73 307.73 0 0 0-71.06 23.2 645.39 645.39 0 0 0-37.42 21.91v21.41h7.9Zm-7.9-52.02c4.12-2.39 24.68-13.81 33.23-17.57 7.57-3.4 19.41-8.52 27.31-11.25a303.53 303.53 0 0 1 47.95-12.62 294.02 294.02 0 0 1 48.03-5.46v-23.87c-7.89 0-15.46.68-23.02 1.36-8.23 1.02-16.78 2.05-25.01 3.41-7.89 1.37-15.38 3.07-23.03 4.78-8.22 2.04-16.69 4.09-24.92 6.82-7.9 2.39-19.74 7.5-27.3 10.57-8.56 3.41-29.12 13.64-33.23 15.86v27.97Zm0-56.53c4.12-2.05 11.77-5.97 15.96-7.85 8.23-3.75 13-6.4 21.55-9.38a456.35 456.35 0 0 1 48.03-13.98c7.57-1.7 15.06-3.07 23.03-4.44a297 297 0 0 1 24.93-3.07c7.56-.68 15.13-1.02 23.02-1.36v-23.88c-7.56.35-15.46.69-23.02 1.37-8.23.68-16.78 1.7-25.01 3.07a334.96 334.96 0 0 0-48.03 10.23 280.7 280.7 0 0 0-23.03 7.16c-8.23 3.07-13.16 5.29-21.38 8.7-4.28 1.88-11.93 5.63-16.04 7.5v25.93Zm0-55.51c3.95-1.71 11.52-5.3 15.63-6.83 8.23-3.15 13-5.37 21.55-8.1 7.57-2.73 15.14-4.77 23.03-6.82 8.23-2.05 16.45-4.1 25.01-5.8 7.56-1.36 15.05-2.73 23.02-3.75 8.23-1.02 16.45-2.04 24.93-2.73 7.56-.68 15.46-1.02 23.03-1.36v-23.88c-7.57.34-15.47.69-23.03 1.37a469.01 469.01 0 0 0-48.04 6.48c-8.22 1.7-16.69 3.4-24.92 5.46a459.2 459.2 0 0 0-23.03 6.48c-8.22 2.72-13.32 4.68-21.55 7.67-4.1 1.45-11.68 4.77-15.62 6.4v25.4Zm879.4-40.17V256.41a271.47 271.47 0 0 1 25.01-107.44v656.41a592.1 592.1 0 0 0-25.01 13.64Zm48.04-24.55V109.14a279.25 279.25 0 0 1 25-30.7v705.44a554.95 554.95 0 0 0-25 10.58Zm-914.6-18.76V57.8c7.9-6.48 16.45-13.47 25-18.93V768.2c-8.39 2.3-16.73 4.8-25 7.5Zm48.36-13.65V25.92c8.22-4.1 16.45-7.5 25-10.57V757.2a544.15 544.15 0 0 0-25 4.78v.08Zm-61.2-756.1c2.97-2.04 4.94-4.08 7.9-5.96h-7.9v5.97Z"/></svg>