<svg width="174" height="51" viewBox="0 0 174 51" fill="none" xmlns="http://www.w3.org/2000/svg"><path fill-rule="evenodd" clip-rule="evenodd" d="M43.672 17.026C41.908 6.14 31.633-1.107 20.833.685c-.067.013-.13.027-.199.036.005.081 0-.023 0 .059 10.43-1.724 20.338 5.486 22.043 15.988 1.705 10.507-5.486 20.476-15.924 22.204-10.52 1.76-20.401-5.356-22.115-15.876-.56-3.47-.222-6.875.95-9.941-.077-.028-.014.004-.086-.023a19.622 19.622 0 0 0-1.208 10.434c1.773 10.892 11.999 18.25 22.88 16.437 10.804-1.796 18.253-12.1 16.485-22.986l.013.01Z" fill="#ED001D"/><path fill-rule="evenodd" clip-rule="evenodd" d="m21.263 22.218.778-1.184c-.407-4.537-2.786-6.577-4.952-7.644-1.121-.561-2.306-.855-3.564-1.009-.361-.045-.796-.068-1.352-.118.303-.352.507-.597.724-.836 2.31-2.529 4.617-5.066 6.95-7.576.186-.2.322-.394.39-.597.149-.453-.222-.905-.697-.905H4.182c-.294 1.61-.588 3.193-.878 4.763.376.18.588.113.774-.177.398-.624 1.008-.986 1.668-1.27.76-.33 1.552-.467 2.37-.471 2.108-.005 4.215 0 6.323 0 .158 0 .312.054.529.1-.154.185-.244.303-.344.416-1.207 1.307-2.424 2.6-3.622 3.912-1.081 1.18-2.135 2.384-3.22 3.55-.322.349-.385.683-.186 1.09.032.064.059.127.086.195a.34.34 0 0 0 .348.208c.747-.054 1.47-.122 2.198-.14.841-.018 2.18.018 2.999.244.678.09 1.27.271 1.8.516-.077.145-.15.285-.23.43-1.208 2.469-2.583 4.87-3.79 7.35-2.411 4.124-4.822 8.172-7.228 12.297-1.14 1.868-2.356 3.74-3.5 5.618-.068.108-.407.629-.226.75.14.1.52-.144.814-.415 1.23-1.131 3.283-3.89 3.762-4.56a103.728 103.728 0 0 0 6.626-9.982c.95-1.398 1.895-2.89 2.921-4.374.258-.497.625-.565.43-.085-.515.823-1.031 1.65-1.637 2.555-.769 1.325-1.624 2.56-2.406 3.885-.516.982-5.558 8.16-5.165 8.503.412.358 1.57-1.08 2.325-1.98.692-.91 1.465-1.819 2.157-2.719 2.75-3.632 5.418-7.431 7.485-11.48.172-.33.461-.135.348.078-.864 1.578-1.813 3.066-2.759 4.631a85.307 85.307 0 0 1-3.179 5.034c-.701.968-.959 1.285-.814 1.38.321.212 1.063-.701 1.402-1.05 2.33-2.397 4.54-5.585 6.386-8.543.108-.186.18.311.018.551-1.135 1.86-2.33 3.71-3.64 5.518-.494.837 1.433-.172 3.405-2.632a.445.445 0 0 0 .04-.054l2.696-3.786-.005.014Z" fill="#ED001D"/><path fill-rule="evenodd" clip-rule="evenodd" d="M45.197 5.216c-.24-.366-3.216 1.932-4.848 3.09-1.04.827-2.067 1.57-3.098 2.397-.977.733-2.827 2.374-3.496 2.98a.709.709 0 0 0-.245.516c-.027.778-.465 1.108-.465 1.108.23-.773.14-1.578-.032-2.135-.2-.633-.457-1.592-1.728-1.551h-.163c-.398.023-1.424.185-1.727 1.271-.077.267-.045 1.153.66 1.655.09.113.23.064.23.28-.103.335-.239.693-.515.905h-.004c-.746.263-1.068.208-1.642.014-.407-.14-.724-.498-.75-.927a.804.804 0 0 1 .072-.412 29.419 29.419 0 0 0 2.062-3.388c.606-1.216.895-4.369-2.094-5.997-3.528-1.922-5.735-.19-6.847.796-1.601 1.76-2.533 3.817-3.519 6.007-.004.013-.1.248-.14.37.29.118.579.25.877.394 3.017 1.492 4.799 3.998 5.35 7.472.335-.58.656-1.167.96-1.764a.282.282 0 0 1 .207-.145c-.203.566-.737 2.026-.98 2.474-.024.041-.385.8-.63 1.303a2.878 2.878 0 0 1-.542.773c-.81.828-2.881 3.044-3.41 4.582-.213.624-2.063 4.844-2.669 5.645a45.454 45.454 0 0 1-2.474 3.017c-1.379 2.071-2.491 4.296-3.527 7.35-1.81.99-1.633.65-1.9 3.876 0 .995-.081 2.067-.081 3.053.258.497.344-.086.602-.656.773-1.814 1.55-3.546 2.238-5.373 1.778-3.035 3.582-5.772 5.626-8.314l1.75-2.08c.349-.412.66-.828.95-1.244l-.013.036s2.424-2.356 2.428-2.365c.416-.353.896-.697 1.366-1.04a7.578 7.578 0 0 1 2-1.041c1.347-.461 2.916-1 3.988-1.104.045 0 .063.055.027.082-.579.443-1.212.764-1.863 1.226-.85.655-2.216 1.307-3.415 2.7l-.054.009c-.344-.204-.837.276-1.171.597-.76.728-4.02 3.216-3.478 3.926l.068.009c1.714-1.235 3.342-2.456 5.042-3.447 4.039-2.31 8.005-4.54 12.736-6.355 1.284-.57 2.062-.741.43-1.243-2.32-.575-4.306-.652-6.454-.489-1.38.159-2.75.407-4.13.489-.41.027-.501-.168-.167-.398.597-.403 4.93-4.012 4.898-6.758l.027-.036c1.027-.416 2.036-1.23 2.809-1.972.778-.656 1.46-1.398 2.239-2.14 1.98-1.817 3.98-3.835 6.11-5.617.977-.787 2.826-1.972 2.528-2.424l-.01.013Z" fill="#ED001D"/><path d="M52.564 7.61c0 .075.027.14.08.194.055.043.136.064.245.064h4.472c.13 0 .282-.005.455-.016.184-.021.369-.048.553-.08a3.67 3.67 0 0 0 .52-.13c.163-.064.293-.145.39-.242.185-.14.32-.302.407-.485.076-.204.114-.41.114-.614v-.177c0-.097-.01-.189-.032-.275a2.041 2.041 0 0 0-.082-.275 2.271 2.271 0 0 0-.406-.517 1.138 1.138 0 0 0-.407-.226 2.7 2.7 0 0 0-.504-.145 2.93 2.93 0 0 0-.537-.081 7.674 7.674 0 0 0-.471-.016h-4.456c-.12 0-.206.021-.26.064a.283.283 0 0 0-.081.21V7.61Zm0 6.35a.199.199 0 0 1-.082.161c-.043.043-.108.065-.195.065h-2.081a.28.28 0 0 1-.114-.016l-.098-.049a.218.218 0 0 1-.065-.161V3.102a.26.26 0 0 1 .049-.161.304.304 0 0 1 .195-.065h6.96c.412 0 .873.022 1.382.065.51.043 1.003.134 1.48.274.488.14.933.345 1.334.614.4.259.693.609.878 1.05.065.194.119.399.162.614a2.7 2.7 0 0 1 .082.663v.161c0 .442-.098.867-.293 1.277-.184.41-.455.743-.813 1.002a3.08 3.08 0 0 1-.927.517c-.347.129-.71.231-1.09.307-.379.064-.758.107-1.138.129-.38.021-.732.032-1.057.032H52.76c-.065 0-.114.016-.147.049a.153.153 0 0 0-.065.129l.017 4.2ZM76.3 2.876c.12 0 .185.027.196.08.022.055.01.12-.033.195l-4.667 8.418c-.238.43-.466.813-.683 1.147-.206.323-.45.597-.731.824a2.903 2.903 0 0 1-1.041.484c-.412.108-.938.162-1.578.162h-2.406c-.152 0-.228-.075-.228-.226v-1.228a.22.22 0 0 1 .065-.162c.033-.043.087-.064.163-.064h2.325c.195 0 .38-.054.553-.162.195-.13.293-.264.293-.404a.827.827 0 0 0-.147-.452L62.673 3.15c-.054-.054-.065-.113-.032-.178.032-.065.103-.097.211-.097H65c.054 0 .108.01.163.032.054.022.092.06.113.113l4.391 6.496c.163.215.293.323.39.323.109 0 .222-.108.342-.323l3.545-6.496c.065-.097.173-.145.325-.145h2.033Zm.205 5.396c0-.743.098-1.394.293-1.955.195-.56.466-1.044.813-1.454a4.47 4.47 0 0 1 1.22-1.034c.466-.28.976-.5 1.528-.662a9.958 9.958 0 0 1 1.724-.34c.607-.075 1.22-.113 1.838-.113h.91c.662 0 1.34.043 2.033.13a8.616 8.616 0 0 1 2 .484 5.92 5.92 0 0 1 1.724.986c.52.42.927.964 1.22 1.632.086.204.157.41.211.614.054.204.103.41.146.614v.032h-2.471a4.693 4.693 0 0 0-.326-.856 2.182 2.182 0 0 0-.569-.727 3.759 3.759 0 0 0-.813-.55 5.8 5.8 0 0 0-1.024-.468 4.216 4.216 0 0 0-1.155-.243 12.83 12.83 0 0 0-1.3-.064c-.51 0-1.03.037-1.562.113a5.884 5.884 0 0 0-1.512.388 4.557 4.557 0 0 0-1.269.791c-.368.334-.65.765-.845 1.293a19.89 19.89 0 0 0-.147.695 4.209 4.209 0 0 0-.048.63v.517c0 .215.016.441.048.678.044.237.093.474.147.711.076.237.179.458.309.663.14.204.32.404.536.598.564.538 1.182.904 1.854 1.098.672.183 1.431.275 2.277.275.553 0 1.046-.016 1.48-.049a3.746 3.746 0 0 0 1.187-.274 6.81 6.81 0 0 0 1.024-.485c.336-.194.596-.382.78-.565.228-.205.402-.404.521-.598a3.4 3.4 0 0 0 .325-.663c.011-.054.022-.102.033-.145.01-.043.022-.092.032-.146h2.488c-.162.808-.428 1.498-.797 2.069-.368.56-.921 1.039-1.658 1.438a6.272 6.272 0 0 1-1.122.517 9.539 9.539 0 0 1-1.236.307c-.423.075-.851.123-1.285.145a16.23 16.23 0 0 1-1.236.049h-.91a16.4 16.4 0 0 1-1.236-.049 12.616 12.616 0 0 1-1.269-.13 9.42 9.42 0 0 1-1.235-.306 5.653 5.653 0 0 1-1.123-.533c-.932-.485-1.593-1.126-1.983-1.923-.38-.808-.57-1.707-.57-2.698v-.437Zm17.135 0c0-.743.098-1.394.293-1.955.195-.56.466-1.044.813-1.454a4.49 4.49 0 0 1 1.22-1.034c.466-.28.976-.5 1.528-.662a9.96 9.96 0 0 1 1.724-.34c.607-.075 1.22-.113 1.838-.113h.91c.662 0 1.339.043 2.033.13a8.613 8.613 0 0 1 2 .484c.64.237 1.214.566 1.724.986.52.42.927.964 1.22 1.632.086.204.157.41.211.614.054.204.103.41.146.614v.032h-2.471a4.723 4.723 0 0 0-.326-.856 2.189 2.189 0 0 0-.569-.727 3.753 3.753 0 0 0-.813-.55 5.793 5.793 0 0 0-1.024-.468 4.218 4.218 0 0 0-1.155-.243 12.826 12.826 0 0 0-1.301-.064c-.509 0-1.03.037-1.561.113a5.884 5.884 0 0 0-1.512.388 4.554 4.554 0 0 0-1.269.791c-.368.334-.65.765-.845 1.293a20.13 20.13 0 0 0-.147.695 4.222 4.222 0 0 0-.048.63v.517a5 5 0 0 0 .048.678c.044.237.093.474.147.711.076.237.179.458.309.663.14.204.32.404.536.598.564.538 1.182.904 1.854 1.098.672.183 1.431.275 2.277.275.553 0 1.046-.016 1.48-.049a3.76 3.76 0 0 0 1.187-.274c.347-.13.688-.291 1.024-.485a3.86 3.86 0 0 0 .781-.565c.227-.205.401-.404.52-.598a3.4 3.4 0 0 0 .325-.663 3.12 3.12 0 0 1 .033-.145 3.18 3.18 0 0 0 .032-.146h2.488c-.162.808-.428 1.498-.796 2.069-.369.56-.922 1.039-1.659 1.438a6.274 6.274 0 0 1-1.122.517 9.539 9.539 0 0 1-1.236.307c-.423.075-.851.123-1.285.145a16.4 16.4 0 0 1-1.236.049h-.91a16.4 16.4 0 0 1-1.236-.049 12.616 12.616 0 0 1-1.269-.13 9.42 9.42 0 0 1-1.235-.306 5.65 5.65 0 0 1-1.123-.533c-.932-.485-1.593-1.126-1.983-1.923-.38-.808-.57-1.707-.57-2.698v-.437Zm26.982 5.914a.786.786 0 0 1-.244-.032 3.154 3.154 0 0 1-.13-.081l-6.489-4.977a.364.364 0 0 0-.195-.08c-.108 0-.162.064-.162.194v4.75c0 .15-.093.226-.277.226h-2.049a.406.406 0 0 1-.228-.065.199.199 0 0 1-.081-.161V3.102c0-.064.027-.118.081-.161a.405.405 0 0 1 .228-.065h2.049c.184 0 .277.075.277.226v4.136c0 .097.038.157.113.178.076.022.158.005.244-.048l6.261-4.395a.746.746 0 0 1 .358-.097h2.374c.108 0 .179.032.211.097.044.054.022.113-.065.178l-6.878 4.847c-.141.107-.141.215 0 .323l7.334 5.59c.076.054.097.113.065.178-.022.065-.092.097-.212.097h-2.585Zm16.327 0c-.087 0-.147-.022-.179-.065a.306.306 0 0 1-.049-.161V5.88c0-.086-.038-.14-.114-.161a.186.186 0 0 0-.195.048l-8.537 8.305a.399.399 0 0 1-.293.113h-2.374a.263.263 0 0 1-.163-.065.26.26 0 0 1-.065-.161V3.102a.22.22 0 0 1 .065-.161.262.262 0 0 1 .163-.065h2.163c.086 0 .146.027.179.08a.202.202 0 0 1 .065.146v8.063c0 .097.032.156.097.177.076.011.152-.016.228-.08l8.472-8.257c.119-.086.222-.129.309-.129h2.39c.087 0 .147.027.179.08a.233.233 0 0 1 .049.146V13.96a.306.306 0 0 1-.049.161c-.032.043-.092.065-.179.065h-2.162Zm16.642 0c-.086 0-.146-.022-.179-.065a.314.314 0 0 1-.048-.161V5.88c0-.086-.038-.14-.114-.161a.186.186 0 0 0-.195.048l-8.538 8.305a.395.395 0 0 1-.292.113h-2.374a.26.26 0 0 1-.163-.065.26.26 0 0 1-.065-.161V3.102a.22.22 0 0 1 .065-.161.26.26 0 0 1 .163-.065h2.162c.087 0 .147.027.179.08a.198.198 0 0 1 .065.146v8.063c0 .097.033.156.098.177.076.011.152-.016.227-.08l8.473-8.257c.119-.086.222-.129.309-.129h2.39c.087 0 .147.027.179.08a.233.233 0 0 1 .049.146V13.96a.306.306 0 0 1-.049.161c-.032.043-.092.065-.179.065h-2.163ZM145.314.194c0-.13.065-.194.195-.194h1.139c.13 0 .211.048.244.145.043.097.103.21.178.34.087.118.228.226.423.323.206.097.537.145.992.145.466 0 .802-.048 1.008-.145.206-.097.353-.205.44-.323.086-.13.146-.243.178-.34.033-.097.109-.145.228-.145h1.138c.141 0 .212.065.212.194-.022.43-.125.786-.309 1.066-.174.27-.407.485-.699.647-.293.15-.629.253-1.009.307a8.438 8.438 0 0 1-2.341 0 3.134 3.134 0 0 1-.992-.307 1.922 1.922 0 0 1-.716-.63c-.184-.28-.287-.641-.309-1.083ZM65.101 25.442c0 .172-.01.35-.032.533a87.43 87.43 0 0 0-.065.566 6.46 6.46 0 0 1-.13.614c-.055.204-.114.409-.18.614a3.81 3.81 0 0 1-.699 1.114 4.927 4.927 0 0 1-.991.84 7.246 7.246 0 0 1-1.188.615c-.412.161-.829.29-1.252.387a9.586 9.586 0 0 1-1.333.21 16.89 16.89 0 0 1-1.545.065h-.943a15.35 15.35 0 0 1-2.407-.194 7.902 7.902 0 0 1-2.228-.695 5.287 5.287 0 0 1-1.723-1.357c-.477-.582-.792-1.32-.944-2.213v-.033h2.456a.923.923 0 0 1 .049.162c.01.054.027.108.049.161.216.625.558 1.11 1.024 1.455a6.852 6.852 0 0 0 1.61.824c.358.129.742.215 1.154.258.412.033.846.049 1.301.049.52 0 1.046-.033 1.578-.097a6.625 6.625 0 0 0 1.496-.388 4.324 4.324 0 0 0 1.252-.792c.369-.334.65-.77.846-1.309.075-.247.13-.511.162-.791h-8.293v-1.697h8.293a25.72 25.72 0 0 1-.065-.371 1.111 1.111 0 0 0-.098-.372c-.108-.442-.379-.862-.813-1.26-.574-.539-1.197-.9-1.87-1.083-.672-.194-1.425-.29-2.26-.29-.564 0-1.062.016-1.496.048a3.902 3.902 0 0 0-1.187.275 6.68 6.68 0 0 0-1.594.872c-.477.345-.824.824-1.04 1.438a3.011 3.011 0 0 1-.033.145.962.962 0 0 1-.049.146h-2.472c.152-.926.467-1.68.944-2.262a5.272 5.272 0 0 1 1.74-1.39 7.35 7.35 0 0 1 2.211-.678 15.23 15.23 0 0 1 2.407-.194h.943c.39 0 .797.016 1.22.048.433.022.861.07 1.284.146.423.064.835.167 1.236.307.401.129.775.301 1.122.517.748.377 1.312.856 1.691 1.438.38.581.635 1.27.765 2.068.021.194.043.382.065.565.021.184.032.367.032.55v.436Zm11.309 5.396a.785.785 0 0 1-.243-.032 3.253 3.253 0 0 1-.13-.08l-6.489-4.977c-.076-.054-.14-.08-.195-.08-.108 0-.163.064-.163.193v4.75c0 .151-.092.226-.276.226h-2.049a.402.402 0 0 1-.228-.064.198.198 0 0 1-.08-.162V19.755c0-.065.026-.119.08-.162a.402.402 0 0 1 .228-.064h2.049c.184 0 .276.075.276.226v4.136c0 .097.038.156.114.178.076.021.157.005.244-.049l6.26-4.395a.745.745 0 0 1 .359-.096h2.374c.108 0 .179.032.211.096.044.054.022.113-.065.178l-6.879 4.847c-.14.108-.14.216 0 .323l7.334 5.59c.076.055.098.114.066.178-.022.065-.093.097-.212.097h-2.585Zm4.034-5.913c0-.743.097-1.395.293-1.955.195-.56.466-1.045.813-1.454a4.47 4.47 0 0 1 1.22-1.034 6.48 6.48 0 0 1 1.528-.663 9.955 9.955 0 0 1 1.724-.339c.607-.075 1.22-.113 1.837-.113h.91c.662 0 1.34.043 2.033.13a8.61 8.61 0 0 1 2 .484 5.92 5.92 0 0 1 1.724.985c.52.42.927.964 1.22 1.632.087.205.157.41.211.614.055.205.103.41.147.614v.033h-2.472a4.691 4.691 0 0 0-.325-.857 2.19 2.19 0 0 0-.57-.727 3.764 3.764 0 0 0-.813-.55 5.81 5.81 0 0 0-1.024-.468 4.217 4.217 0 0 0-1.155-.242 12.852 12.852 0 0 0-1.3-.065c-.51 0-1.03.038-1.562.113a5.883 5.883 0 0 0-1.512.388 4.555 4.555 0 0 0-1.268.792c-.369.334-.65.765-.846 1.292-.054.237-.103.469-.146.695a4.222 4.222 0 0 0-.05.63v.517c0 .216.017.442.05.679.043.237.092.474.146.71.076.238.179.459.309.663.141.205.32.404.537.598.563.539 1.181.905 1.854 1.099.672.183 1.43.274 2.276.274.553 0 1.046-.016 1.48-.048.434-.032.83-.124 1.187-.275.347-.129.688-.29 1.024-.484a3.81 3.81 0 0 0 .781-.566 2.8 2.8 0 0 0 .52-.598c.13-.204.239-.425.326-.662a3.13 3.13 0 0 1 .032-.146c.011-.043.022-.091.033-.145h2.488c-.163.808-.428 1.497-.797 2.068-.369.56-.922 1.04-1.659 1.438a6.26 6.26 0 0 1-1.122.517c-.401.13-.813.232-1.236.307-.422.075-.85.124-1.284.145A15.89 15.89 0 0 1 88.77 31h-.91c-.402 0-.814-.016-1.237-.049a12.645 12.645 0 0 1-1.268-.129 9.42 9.42 0 0 1-1.236-.307 5.647 5.647 0 0 1-1.122-.533c-.932-.485-1.594-1.125-1.984-1.923-.38-.807-.57-1.707-.57-2.698v-.436Zm17.403 5.913a.304.304 0 0 1-.195-.064.198.198 0 0 1-.082-.162V19.755a.2.2 0 0 1 .082-.162.304.304 0 0 1 .195-.064h12.977c.076 0 .141.026.195.08.065.043.097.092.097.146v10.857a.199.199 0 0 1-.081.162.33.33 0 0 1-.211.064h-2.066a.33.33 0 0 1-.211-.064.199.199 0 0 1-.081-.162v-9.177c0-.15-.092-.226-.277-.226h-7.724c-.173 0-.26.075-.26.226v9.177c0 .151-.087.226-.26.226h-2.098Zm18.175-6.576c0 .076.027.14.081.194.054.044.136.065.244.065h4.472c.13 0 .282-.005.455-.016a11.5 11.5 0 0 0 .553-.08c.184-.033.358-.076.521-.13.162-.065.292-.146.39-.243.184-.14.32-.301.406-.484.076-.205.114-.41.114-.614v-.178c0-.097-.011-.188-.032-.275a2.012 2.012 0 0 0-.082-.274 2.252 2.252 0 0 0-.406-.517 1.142 1.142 0 0 0-.407-.227 2.676 2.676 0 0 0-.504-.145 2.923 2.923 0 0 0-.536-.08 7.675 7.675 0 0 0-.472-.017h-4.456c-.119 0-.206.022-.26.065a.283.283 0 0 0-.081.21v2.747Zm0 6.35a.199.199 0 0 1-.081.162c-.044.043-.109.064-.196.064h-2.081a.285.285 0 0 1-.114-.016l-.098-.048a.22.22 0 0 1-.065-.162V19.755c0-.065.017-.119.049-.162a.303.303 0 0 1 .195-.064h6.96c.412 0 .873.021 1.383.064a7.478 7.478 0 0 1 1.479.275c.488.14.933.345 1.334.614.401.258.694.608.878 1.05.065.194.119.398.163.614.054.215.081.436.081.662v.162c0 .442-.098.867-.293 1.276-.184.41-.455.744-.813 1.002-.26.215-.569.388-.927.517-.347.13-.71.232-1.089.307-.38.065-.759.108-1.139.13-.379.02-.731.032-1.057.032h-4.374c-.065 0-.114.016-.146.048a.152.152 0 0 0-.065.13l.016 4.2Zm11.118-10.857c0-.076.016-.13.049-.162a.455.455 0 0 1 .227-.064h11.725c.087 0 .152.021.195.064a.199.199 0 0 1 .081.162v1.228c0 .086-.027.145-.081.177-.043.033-.108.049-.195.049h-9.172a.35.35 0 0 0-.195.064c-.054.033-.081.087-.081.162v2.456c0 .075.027.135.081.178.065.032.13.048.195.048h8.944c.174 0 .26.075.26.226v1.228c0 .151-.086.226-.26.226h-8.944a.35.35 0 0 0-.195.065c-.054.032-.081.086-.081.162V28.9c0 .15.092.226.276.226h9.351c.087 0 .152.021.195.064a.199.199 0 0 1 .081.162v1.26a.199.199 0 0 1-.081.162c-.043.043-.108.064-.195.064h-11.904a.455.455 0 0 1-.227-.064c-.033-.033-.049-.086-.049-.162V19.755Zm13.507 5.17c0-.743.097-1.395.292-1.955a4.52 4.52 0 0 1 .813-1.454c.347-.42.754-.765 1.22-1.034.466-.28.976-.501 1.529-.663a9.934 9.934 0 0 1 1.723-.339 14.9 14.9 0 0 1 1.838-.113h.91c.662 0 1.339.043 2.033.13a8.595 8.595 0 0 1 2 .484 5.91 5.91 0 0 1 1.724.985c.52.42.927.964 1.22 1.632.086.205.157.41.211.614.054.205.103.41.146.614v.033h-2.471a4.649 4.649 0 0 0-.326-.857 2.188 2.188 0 0 0-.569-.727 3.756 3.756 0 0 0-.813-.55 5.799 5.799 0 0 0-1.024-.468 4.22 4.22 0 0 0-1.155-.242 12.85 12.85 0 0 0-1.301-.065c-.509 0-1.03.038-1.561.113a5.883 5.883 0 0 0-1.512.388 4.57 4.57 0 0 0-1.269.792c-.368.334-.65.765-.845 1.292a22.27 22.27 0 0 0-.147.695 4.287 4.287 0 0 0-.048.63v.517c0 .216.016.442.048.679.044.237.093.474.147.71.076.238.179.459.309.663.141.205.32.404.536.598.564.539 1.182.905 1.854 1.099.672.183 1.431.274 2.277.274.553 0 1.046-.016 1.48-.048a3.76 3.76 0 0 0 1.187-.275c.347-.129.688-.29 1.024-.484a3.86 3.86 0 0 0 .781-.566c.227-.205.401-.404.52-.598a3.39 3.39 0 0 0 .325-.662 3.38 3.38 0 0 1 .033-.146 2.22 2.22 0 0 0 .032-.145h2.488c-.162.808-.428 1.497-.796 2.068-.369.56-.922 1.04-1.659 1.438a6.267 6.267 0 0 1-1.122.517c-.401.13-.813.232-1.236.307-.423.075-.851.124-1.285.145-.422.033-.834.049-1.236.049h-.91c-.401 0-.813-.016-1.236-.049a12.607 12.607 0 0 1-1.268-.129 9.41 9.41 0 0 1-1.236-.307 5.652 5.652 0 0 1-1.122-.533c-.933-.485-1.594-1.125-1.984-1.923-.38-.807-.569-1.707-.569-2.698v-.436Zm17.135 0c0-.743.097-1.395.292-1.955a4.52 4.52 0 0 1 .813-1.454c.347-.42.754-.765 1.22-1.034.466-.28.976-.501 1.529-.663a9.934 9.934 0 0 1 1.723-.339 14.9 14.9 0 0 1 1.838-.113h.91c.662 0 1.339.043 2.033.13a8.595 8.595 0 0 1 2 .484c.64.237 1.214.565 1.724.985.52.42.927.964 1.22 1.632.086.205.157.41.211.614.054.205.103.41.146.614v.033h-2.471a4.649 4.649 0 0 0-.326-.857 2.188 2.188 0 0 0-.569-.727 3.756 3.756 0 0 0-.813-.55 5.799 5.799 0 0 0-1.024-.468 4.22 4.22 0 0 0-1.155-.242 12.85 12.85 0 0 0-1.301-.065c-.509 0-1.03.038-1.561.113a5.883 5.883 0 0 0-1.512.388 4.57 4.57 0 0 0-1.269.792c-.368.334-.65.765-.845 1.292a22.27 22.27 0 0 0-.147.695 4.287 4.287 0 0 0-.048.63v.517c0 .216.016.442.048.679.044.237.093.474.147.71.076.238.179.459.309.663.141.205.32.404.536.598.564.539 1.182.905 1.854 1.099.672.183 1.431.274 2.277.274.553 0 1.046-.016 1.48-.048a3.76 3.76 0 0 0 1.187-.275c.347-.129.688-.29 1.024-.484a3.86 3.86 0 0 0 .781-.566c.227-.205.401-.404.52-.598a3.39 3.39 0 0 0 .325-.662 3.38 3.38 0 0 1 .033-.146 2.22 2.22 0 0 0 .032-.145h2.488c-.162.808-.428 1.497-.796 2.068-.369.56-.922 1.04-1.659 1.438a6.267 6.267 0 0 1-1.122.517c-.401.13-.813.232-1.236.307-.423.075-.851.124-1.285.145-.422.033-.834.049-1.236.049h-.91c-.401 0-.813-.016-1.236-.049a12.607 12.607 0 0 1-1.268-.129 9.41 9.41 0 0 1-1.236-.307 5.626 5.626 0 0 1-1.122-.533c-.933-.485-1.594-1.125-1.984-1.923-.38-.807-.569-1.707-.569-2.698v-.436Z" fill="#ED001D"/><path d="M52.532 40.913a.187.187 0 0 1-.1-.026c-.028-.023-.042-.058-.042-.105v-4.93c0-.087-.04-.13-.118-.13h-2.621a.217.217 0 0 1-.11-.035.121.121 0 0 1-.033-.088v-.681c0-.035.011-.064.033-.088a.216.216 0 0 1 .11-.035h6.864c.09 0 .135.041.135.123v.681c0 .082-.045.123-.135.123h-2.63a.166.166 0 0 0-.092.035.162.162 0 0 0-.025.096v4.929c0 .04-.012.073-.034.096a.251.251 0 0 1-.1.035h-1.102Z" fill="#6C6C6C"/><path d="m58.172 40.852-2.176-4.204a.102.102 0 0 1-.008-.07c.01-.023.033-.035.067-.035h1.05c.04 0 .07.023.093.07l1.705 3.295c.017.035.034.053.05.053.023 0 .043-.018.06-.053l1.697-3.295c.028-.047.056-.07.084-.07h1.042c.033 0 .053.012.058.035a.077.077 0 0 1 0 .07l-2.134 4.204a19 19 0 0 0-.31.594c-.079.17-.172.312-.278.428a.92.92 0 0 1-.395.263c-.162.058-.386.087-.672.087h-1.201c-.045 0-.073-.012-.085-.035-.016-.017-.025-.047-.025-.087v-.586a.1.1 0 0 1 .009-.044c.005-.011.01-.023.017-.035a.51.51 0 0 0 .042-.034h.042l.974.008a.36.36 0 0 0 .135-.026.287.287 0 0 0 .126-.061c.106-.07.15-.149.134-.236a.667.667 0 0 0-.1-.236Zm5.586-2.132c0 .186.03.36.092.524.068.163.166.309.295.437.078.07.156.13.235.183.084.053.174.097.269.131.05.024.109.047.176.07l.202.053c.073.011.143.023.21.035a2.902 2.902 0 0 0 .706-.035c.162-.03.31-.079.445-.149.134-.07.252-.163.353-.28.1-.122.185-.273.252-.454a1.63 1.63 0 0 0 .084-.498v-.149c0-.163-.028-.335-.084-.515a1.1 1.1 0 0 0-.252-.446.92.92 0 0 0-.269-.219 1.395 1.395 0 0 0-.336-.13 1.89 1.89 0 0 0-.361-.07 3.69 3.69 0 0 0-.345-.018c-.207 0-.412.03-.613.087a1.681 1.681 0 0 0-.53.263c-.156.11-.285.253-.386.428a1.278 1.278 0 0 0-.143.62v.131Zm-1.26-2.116c0-.029.005-.058.017-.087.016-.03.047-.044.092-.044h1.034c.044 0 .075.015.092.044.017.03.025.058.025.087v.499a.783.783 0 0 1 .227-.184 2.27 2.27 0 0 1 .336-.166c.118-.053.233-.096.344-.131.118-.04.219-.07.303-.087a3.82 3.82 0 0 1 .823-.08h.126c.163 0 .328.013.496.036.168.017.333.052.496.105.162.046.316.11.462.192.151.082.286.186.403.315.207.215.35.434.429.655.078.221.117.484.117.787v.157c0 .396-.064.734-.193 1.014-.123.28-.297.51-.52.69a2.118 2.118 0 0 1-.774.385 3.57 3.57 0 0 1-.95.122h-.1c-.118 0-.25-.006-.395-.017a5.7 5.7 0 0 1-.437-.07 3.24 3.24 0 0 1-.42-.131 1.321 1.321 0 0 1-.353-.201l-.134-.088a12.13 12.13 0 0 1-.143-.113c-.056-.03-.095-.035-.118-.018-.017.018-.025.05-.025.096v1.984c0 .03-.008.058-.025.088-.017.029-.048.043-.092.043h-1.034c-.045 0-.076-.014-.092-.043a.242.242 0 0 1-.017-.088v-5.75Zm11.581 2.01c0-.145-.026-.3-.076-.463a.868.868 0 0 0-.286-.445 1.074 1.074 0 0 0-.32-.228 1.794 1.794 0 0 0-.394-.148 2.424 2.424 0 0 0-.412-.07 3.132 3.132 0 0 0-.386-.026c-.174 0-.356.011-.546.035a2.28 2.28 0 0 0-.53.13 1.522 1.522 0 0 0-.462.28c-.134.123-.235.28-.302.472l-.05.245a1.01 1.01 0 0 0-.026.218v.193c0 .326.09.6.269.821.18.216.412.37.697.464.112.046.247.081.404.104.156.018.339.027.546.027.285 0 .554-.03.806-.088a1.56 1.56 0 0 0 .698-.402c.129-.122.221-.26.277-.41a1.4 1.4 0 0 0 .093-.516v-.193Zm-1.756-2.158c.156 0 .322.006.495.017a4.791 4.791 0 0 1 1.025.184c.168.047.322.108.462.183.185.117.348.242.488.376.14.128.257.294.352.498a.873.873 0 0 1 .093.245l.05.245.034.218c.011.07.017.14.017.21v.166c0 .14-.017.286-.05.437a2.138 2.138 0 0 1-.144.48c-.14.28-.316.505-.529.674-.207.169-.437.3-.689.393a3.41 3.41 0 0 1-.781.175c-.275.029-.55.044-.823.044h-.278c-.336 0-.675-.024-1.016-.07a2.427 2.427 0 0 1-.967-.333 1.848 1.848 0 0 1-.31-.183 1.399 1.399 0 0 1-.227-.219 1.44 1.44 0 0 1-.303-.437 2.153 2.153 0 0 1-.176-.751 2.857 2.857 0 0 1-.009-.21v-.166c0-.268.034-.518.101-.752.073-.233.202-.445.387-.638.14-.163.31-.294.512-.393.207-.105.426-.186.655-.245.23-.058.463-.096.698-.113.235-.023.454-.035.655-.035h.278Zm3.927 4.431a.086.086 0 0 1-.025-.061V36.63c0-.024.008-.044.025-.062a.19.19 0 0 1 .075-.026h5.344a.11.11 0 0 1 .067.026c.023.024.034.044.034.062v4.195c0 .017-.011.038-.034.06a.11.11 0 0 1-.067.027h-1.067a.144.144 0 0 1-.067-.017.084.084 0 0 1-.034-.07v-3.374c0-.029-.011-.05-.033-.061a.089.089 0 0 0-.068-.026h-2.814a.109.109 0 0 0-.067.026c-.023.012-.034.032-.034.061v3.374c0 .029-.008.05-.025.06-.017.018-.042.027-.076.027h-1.059a.19.19 0 0 1-.075-.026Zm9.385-3.627c-.163 0-.333.009-.513.026a2.276 2.276 0 0 0-.495.105 1.346 1.346 0 0 0-.42.227.846.846 0 0 0-.278.376.27.27 0 0 0-.017.184c.017.04.06.06.126.06h3.135c.14 0 .201-.034.184-.104a.67.67 0 0 0-.176-.463 1.048 1.048 0 0 0-.42-.263 2.047 2.047 0 0 0-.555-.122 6.251 6.251 0 0 0-.554-.026h-.017Zm2.865 2.316c.1 0 .151.006.151.017v.018c0 .28-.087.51-.26.69-.174.18-.395.324-.664.428a3.324 3.324 0 0 1-.865.21 6.71 6.71 0 0 1-.883.062h-.445c-.353 0-.709-.033-1.067-.097a2.995 2.995 0 0 1-.966-.34 2.114 2.114 0 0 1-.706-.682c-.18-.286-.269-.647-.269-1.084v-.166c0-.14.008-.277.025-.41.023-.135.06-.266.11-.394.084-.262.224-.48.42-.656.201-.18.431-.323.689-.428.257-.105.535-.178.831-.218.303-.047.597-.07.883-.07h.487c.297 0 .594.023.89.07.297.046.57.128.816.244.252.111.462.266.63.464.173.198.285.445.336.742.022.14.036.274.042.403.011.128.017.256.017.384v.184c0 .029-.014.055-.042.078-.012.018-.037.026-.076.026h-4.562a.208.208 0 0 0-.068.01h-.041c-.028.01-.042.026-.042.043.061.233.168.417.319.55.151.135.322.236.512.306.196.07.404.117.622.14.219.018.423.026.613.026.168 0 .33-.008.488-.026a2.6 2.6 0 0 0 .42-.078c.129-.041.238-.09.328-.149a.463.463 0 0 0 .184-.21.125.125 0 0 1 .126-.087H88.5Zm2.35-.856c0 .186.032.36.093.524.067.163.165.309.294.437a1.442 1.442 0 0 0 .504.315c.05.023.11.046.177.07l.201.052c.073.011.143.023.21.035a2.902 2.902 0 0 0 .706-.035c.163-.03.311-.079.446-.149.134-.07.252-.163.352-.28.101-.122.185-.273.252-.454.056-.175.085-.34.085-.498v-.149c0-.163-.029-.335-.085-.515a1.1 1.1 0 0 0-.252-.446.92.92 0 0 0-.268-.219 1.395 1.395 0 0 0-.337-.13 1.89 1.89 0 0 0-.36-.07 3.69 3.69 0 0 0-.345-.018c-.207 0-.412.03-.614.087a1.681 1.681 0 0 0-.529.263c-.157.11-.286.253-.386.428a1.278 1.278 0 0 0-.143.62v.131Zm-1.26-2.116c0-.029.006-.058.017-.087.017-.03.048-.044.093-.044h1.033c.045 0 .076.015.093.044.016.03.025.058.025.087v.499a.783.783 0 0 1 .227-.184 2.27 2.27 0 0 1 .336-.166c.117-.053.232-.096.344-.131.118-.04.219-.07.303-.087a3.82 3.82 0 0 1 .823-.08h.126c.162 0 .328.013.496.036.168.017.333.052.495.105.163.046.317.11.463.192.15.082.285.186.403.315.207.215.35.434.428.655.079.221.118.484.118.787v.157c0 .396-.064.734-.193 1.014-.123.28-.297.51-.521.69a2.118 2.118 0 0 1-.773.385 3.57 3.57 0 0 1-.95.122h-.1c-.118 0-.25-.006-.395-.017a5.7 5.7 0 0 1-.437-.07 3.24 3.24 0 0 1-.42-.131 1.321 1.321 0 0 1-.353-.201l-.135-.088a12.13 12.13 0 0 1-.142-.113c-.056-.03-.096-.035-.118-.018-.017.018-.025.05-.025.096v1.984c0 .03-.009.058-.025.088-.017.029-.048.043-.093.043H89.7c-.045 0-.076-.014-.093-.043a.242.242 0 0 1-.017-.088v-5.75Zm10.993 2.369c-.006-.093-.064-.134-.176-.123l-2.135.21a4.607 4.607 0 0 0-.26.035 1.744 1.744 0 0 0-.328.07 1.1 1.1 0 0 0-.285.14.249.249 0 0 0-.118.218v.088c.011.076.025.14.042.192a.264.264 0 0 0 .076.123.59.59 0 0 0 .226.14.928.928 0 0 0 .152.06c.056.012.114.027.176.044.157.03.322.044.496.044a8.797 8.797 0 0 0 .798-.035c.14-.018.277-.04.412-.07.134-.03.257-.064.369-.105a.589.589 0 0 0 .395-.34c.045-.088.082-.178.11-.272.028-.099.044-.207.05-.323v-.096Zm.328 1.477c-.163.192-.353.32-.572.384a4.06 4.06 0 0 1-.672.14 9.924 9.924 0 0 1-1.193.07h-.118c-.235 0-.484-.014-.747-.043a2.442 2.442 0 0 1-.723-.175c-.218-.093-.4-.23-.546-.411-.14-.187-.21-.437-.21-.752v-.026c0-.414.154-.717.462-.909a2.23 2.23 0 0 1 .504-.236c.18-.058.375-.096.588-.113l2.63-.289c.157-.006.258-.047.303-.122a.292.292 0 0 0 .084-.21.744.744 0 0 0-.026-.157.57.57 0 0 0-.084-.088.412.412 0 0 0-.109-.078 1.132 1.132 0 0 0-.286-.079 2.245 2.245 0 0 0-.352-.044 3.596 3.596 0 0 0-.353-.017h-.387c-.252 0-.481.006-.689.017a3.03 3.03 0 0 0-.664.123c-.156.052-.26.105-.31.157-.05.052-.082.151-.093.297-.011.064-.059.096-.143.096h-.89c-.09 0-.135-.026-.135-.078v-.018c0-.198.031-.373.093-.524a1.02 1.02 0 0 1 .336-.402c.134-.123.291-.216.47-.28.18-.07.364-.122.555-.157.19-.035.38-.056.571-.061.196-.006.378-.01.546-.01h.252c.348 0 .644.01.891.027.252.017.456.047.613.087.118.035.236.076.353.123.123.046.235.102.336.166.101.064.191.14.269.227a.693.693 0 0 1 .168.288c.051.175.073.344.067.507l-.084 1.224c0 .076.006.163.017.262.011.1.028.216.051.35.028.256.198.384.512.384h.143c.045 0 .078.026.101.079a.74.74 0 0 1 .025.218v.394c0 .081-.042.122-.126.122h-.387a3.57 3.57 0 0 1-.369-.017 2.039 2.039 0 0 1-.294-.053.804.804 0 0 1-.21-.105.28.28 0 0 1-.11-.157l-.058-.131Zm4.005.463c-.045 0-.07-.012-.076-.035-.005-.006-.008-.026-.008-.061v-3.409a.1.1 0 0 0-.025-.07.165.165 0 0 0-.076-.017h-1.84c-.028 0-.048-.009-.059-.026a.084.084 0 0 1-.025-.061v-.638c0-.03.008-.053.025-.07.011-.018.031-.027.059-.027h5.209a.09.09 0 0 1 .067.027.15.15 0 0 1 .017.07v.638a.135.135 0 0 1-.017.06.087.087 0 0 1-.067.027h-1.932c-.023 0-.04.006-.051.018-.017.011-.025.035-.025.07v3.408a.085.085 0 0 1-.025.061c-.017.023-.045.035-.084.035h-1.067Zm8.735-2.299c0-.145-.025-.3-.076-.463a.862.862 0 0 0-.286-.445 1.069 1.069 0 0 0-.319-.228 1.793 1.793 0 0 0-.395-.148 2.411 2.411 0 0 0-.411-.07 3.136 3.136 0 0 0-.387-.026 4.49 4.49 0 0 0-.546.035 2.274 2.274 0 0 0-.529.13 1.522 1.522 0 0 0-.462.28 1.12 1.12 0 0 0-.303.472l-.05.245a1 1 0 0 0-.026.218v.193c0 .326.09.6.269.821.18.216.412.37.698.464a1.7 1.7 0 0 0 .403.104c.157.018.339.027.546.027.286 0 .555-.03.807-.088.252-.064.484-.198.697-.402.129-.122.221-.26.277-.41a1.4 1.4 0 0 0 .093-.516v-.193Zm-1.756-2.158c.157 0 .322.006.495.017a4.791 4.791 0 0 1 1.025.184c.169.047.323.108.463.183.184.117.347.242.487.376.14.128.258.294.353.498a.874.874 0 0 1 .092.245l.051.245.033.218c.011.07.017.14.017.21v.166c0 .14-.017.286-.05.437a2.154 2.154 0 0 1-.143.48c-.14.28-.317.505-.53.674-.207.169-.436.3-.689.393a3.393 3.393 0 0 1-.781.175 7.824 7.824 0 0 1-.823.044h-.278a7.5 7.5 0 0 1-1.016-.07 2.421 2.421 0 0 1-.966-.333 1.837 1.837 0 0 1-.311-.183 1.36 1.36 0 0 1-.227-.219 1.441 1.441 0 0 1-.303-.437 2.188 2.188 0 0 1-.176-.751 2.64 2.64 0 0 1-.008-.21v-.166c0-.268.033-.518.1-.752.073-.233.202-.445.387-.638.14-.163.311-.294.512-.393.208-.105.426-.186.656-.245a4.04 4.04 0 0 1 .697-.113c.235-.023.454-.035.655-.035h.278Zm5.162 2.264c0 .186.031.36.093.524.067.163.165.309.294.437.078.07.156.13.235.183.084.053.174.097.269.131.05.024.109.047.176.07l.202.053c.073.011.143.023.21.035a2.916 2.916 0 0 0 .706-.035c.162-.03.311-.079.445-.149.134-.07.252-.163.353-.28.101-.122.185-.273.252-.454a1.63 1.63 0 0 0 .084-.498v-.149c0-.163-.028-.335-.084-.515-.056-.18-.14-.33-.252-.446a.929.929 0 0 0-.269-.219 1.38 1.38 0 0 0-.336-.13 1.896 1.896 0 0 0-.361-.07 3.704 3.704 0 0 0-.345-.018c-.207 0-.412.03-.613.087a1.686 1.686 0 0 0-.53.263c-.156.11-.285.253-.386.428a1.28 1.28 0 0 0-.143.62v.131Zm-1.26-2.116c0-.029.005-.058.017-.087.016-.03.047-.044.092-.044h1.034c.044 0 .075.015.092.044.017.03.025.058.025.087v.499a.79.79 0 0 1 .227-.184c.106-.064.218-.12.336-.166a3.09 3.09 0 0 1 .345-.131c.117-.04.218-.07.302-.087.235-.053.51-.08.823-.08h.126c.163 0 .328.013.496.036.168.017.333.052.496.105.162.046.316.11.462.192.151.082.286.186.403.315.208.215.35.434.429.655.078.221.117.484.117.787v.157c0 .396-.064.734-.193 1.014-.123.28-.297.51-.521.69a2.114 2.114 0 0 1-.773.385 3.567 3.567 0 0 1-.949.122h-.101a5.31 5.31 0 0 1-.395-.017 5.781 5.781 0 0 1-.437-.07 3.298 3.298 0 0 1-.42-.131 1.331 1.331 0 0 1-.353-.201l-.134-.088a8.21 8.21 0 0 1-.143-.113c-.056-.03-.095-.035-.118-.018-.016.018-.025.05-.025.096v1.984c0 .03-.008.058-.025.088-.017.029-.048.043-.092.043h-1.034c-.045 0-.076-.014-.092-.043a.226.226 0 0 1-.017-.088v-5.75Zm6.869 5.218c-.056 0-.073-.026-.05-.079a1.79 1.79 0 0 0 .067-.192c.022-.076.042-.154.059-.236.017-.076.031-.151.042-.227a1.17 1.17 0 0 0 .017-.175h-.244c-.095 0-.143-.04-.143-.122v-.734c0-.082.048-.123.143-.123h1.075c.051 0 .087.015.11.044.022.023.033.05.033.079v.541c0 .047-.005.137-.017.271a3.292 3.292 0 0 1-.042.411 1.76 1.76 0 0 1-.1.376c-.04.11-.093.166-.16.166h-.79Zm9.239-.909c-.157-.012-.272-.046-.345-.105l-2.336-1.757a.093.093 0 0 0-.101-.026c-.033.006-.05.03-.05.07v1.73c0 .018-.011.039-.034.062a.107.107 0 0 1-.067.026h-1.033a.216.216 0 0 1-.084-.017c-.028-.012-.042-.035-.042-.07V36.63c0-.041.011-.065.033-.07a.24.24 0 0 1 .093-.018h1.033c.028 0 .051.009.067.026.023.018.034.038.034.062v1.538c0 .035.017.058.05.07.04.011.073.006.101-.018l2.344-1.643a.108.108 0 0 1 .051-.026.34.34 0 0 1 .067-.009h1.227c.045 0 .07.015.075.044.012.023.006.044-.016.061l-2.655 1.87c-.068.047-.07.09-.009.132l2.773 2.106c.061.04.089.078.084.113 0 .03-.023.044-.067.044h-1.193Zm6.594-2.299c0-.145-.025-.3-.076-.463a.866.866 0 0 0-.285-.445 1.082 1.082 0 0 0-.319-.228 1.812 1.812 0 0 0-.395-.148 2.44 2.44 0 0 0-.412-.07 3.136 3.136 0 0 0-.387-.026c-.173 0-.355.011-.546.035a2.274 2.274 0 0 0-.529.13 1.522 1.522 0 0 0-.462.28 1.13 1.13 0 0 0-.303.472l-.05.245a.996.996 0 0 0-.025.218v.193c0 .326.089.6.269.821.179.216.411.37.697.464a1.7 1.7 0 0 0 .403.104c.157.018.339.027.546.027.286 0 .555-.03.807-.088.252-.064.485-.198.697-.402.129-.122.222-.26.278-.41a1.42 1.42 0 0 0 .092-.516v-.193Zm-1.756-2.158c.157 0 .322.006.496.017a4.804 4.804 0 0 1 1.025.184c.168.047.322.108.462.183.185.117.347.242.487.376.14.128.258.294.353.498a.878.878 0 0 1 .093.245l.05.245c.011.075.022.148.034.218.011.07.016.14.016.21v.166c0 .14-.016.286-.05.437a2.154 2.154 0 0 1-.143.48c-.14.28-.316.505-.529.674-.207.169-.437.3-.689.393a3.413 3.413 0 0 1-.782.175 7.81 7.81 0 0 1-.823.044h-.277c-.336 0-.675-.024-1.017-.07a2.421 2.421 0 0 1-.966-.333 1.837 1.837 0 0 1-.311-.183 1.4 1.4 0 0 1-.227-.219 1.438 1.438 0 0 1-.302-.437 2.146 2.146 0 0 1-.177-.751 3.218 3.218 0 0 1-.008-.21v-.166c0-.268.033-.518.101-.752a1.6 1.6 0 0 1 .386-.638 1.59 1.59 0 0 1 .513-.393c.207-.105.425-.186.655-.245.23-.058.462-.096.697-.113.236-.023.454-.035.656-.035h.277Zm5.55 4.457c-.045 0-.07-.012-.076-.035-.005-.006-.008-.026-.008-.061v-3.409a.096.096 0 0 0-.025-.07.165.165 0 0 0-.076-.017h-1.84c-.028 0-.048-.009-.059-.026a.084.084 0 0 1-.025-.061v-.638c0-.03.008-.053.025-.07.011-.018.031-.027.059-.027h5.209c.028 0 .051.01.068.027a.163.163 0 0 1 .016.07v.638a.146.146 0 0 1-.016.06.091.091 0 0 1-.068.027h-1.932c-.023 0-.039.006-.051.018-.016.011-.025.035-.025.07v3.408a.085.085 0 0 1-.025.061c-.017.023-.045.035-.084.035h-1.067Zm8.735-2.299c0-.145-.025-.3-.076-.463a.866.866 0 0 0-.285-.445 1.073 1.073 0 0 0-.32-.228 1.774 1.774 0 0 0-.395-.148 2.411 2.411 0 0 0-.411-.07 3.136 3.136 0 0 0-.387-.026c-.173 0-.355.011-.546.035a2.274 2.274 0 0 0-.529.13 1.522 1.522 0 0 0-.462.28 1.12 1.12 0 0 0-.303.472l-.05.245a.996.996 0 0 0-.025.218v.193c0 .326.089.6.268.821.18.216.412.37.698.464a1.7 1.7 0 0 0 .403.104c.157.018.339.027.546.027.286 0 .555-.03.807-.088.252-.064.484-.198.697-.402.129-.122.222-.26.278-.41a1.42 1.42 0 0 0 .092-.516v-.193Zm-1.756-2.158c.157 0 .322.006.496.017a4.804 4.804 0 0 1 1.025.184c.168.047.322.108.462.183.185.117.347.242.487.376.14.128.258.294.353.498a.844.844 0 0 1 .092.245l.051.245.033.218c.012.07.017.14.017.21v.166c0 .14-.017.286-.05.437a2.154 2.154 0 0 1-.143.48c-.14.28-.316.505-.529.674a2.41 2.41 0 0 1-.689.393 3.413 3.413 0 0 1-.782.175 7.824 7.824 0 0 1-.823.044h-.277c-.336 0-.675-.024-1.017-.07a2.421 2.421 0 0 1-.966-.333 1.837 1.837 0 0 1-.311-.183 1.4 1.4 0 0 1-.227-.219 1.42 1.42 0 0 1-.302-.437 2.146 2.146 0 0 1-.177-.751 3.218 3.218 0 0 1-.008-.21v-.166c0-.268.033-.518.101-.752a1.6 1.6 0 0 1 .386-.638 1.59 1.59 0 0 1 .513-.393c.207-.105.425-.186.655-.245.23-.058.462-.096.697-.113.236-.023.454-.035.656-.035h.277Zm5.162 2.264c0 .186.031.36.093.524.067.163.165.309.294.437.078.07.157.13.235.183.084.053.174.097.269.131.05.024.109.047.176.07l.202.053c.073.011.143.023.21.035a2.907 2.907 0 0 0 .706-.035c.162-.03.311-.079.445-.149.135-.07.252-.163.353-.28.101-.122.185-.273.252-.454a1.63 1.63 0 0 0 .084-.498v-.149c0-.163-.028-.335-.084-.515-.056-.18-.14-.33-.252-.446a.916.916 0 0 0-.269-.219 1.38 1.38 0 0 0-.336-.13 1.881 1.881 0 0 0-.361-.07 3.687 3.687 0 0 0-.345-.018c-.207 0-.411.03-.613.087a1.681 1.681 0 0 0-.529.263 1.33 1.33 0 0 0-.387.428 1.28 1.28 0 0 0-.143.62v.131Zm-1.26-2.116c0-.029.006-.058.017-.087.017-.03.047-.044.092-.044h1.034c.045 0 .075.015.092.044.017.03.025.058.025.087v.499a.79.79 0 0 1 .227-.184 2.33 2.33 0 0 1 .336-.166 3.09 3.09 0 0 1 .345-.131c.117-.04.218-.07.302-.087.236-.053.51-.08.824-.08h.126c.162 0 .327.013.495.036.168.017.334.052.496.105.163.046.317.11.462.192.151.082.286.186.404.315.207.215.35.434.428.655.078.221.118.484.118.787v.157c0 .396-.065.734-.194 1.014-.123.28-.296.51-.521.69a2.117 2.117 0 0 1-.772.385 3.574 3.574 0 0 1-.95.122h-.101c-.117 0-.249-.006-.395-.017a5.781 5.781 0 0 1-.437-.07 3.298 3.298 0 0 1-.42-.131 1.331 1.331 0 0 1-.353-.201l-.134-.088-.143-.113c-.056-.03-.095-.035-.117-.018-.017.018-.026.05-.026.096v1.984c0 .03-.008.058-.025.088-.017.029-.047.043-.092.043h-1.034c-.045 0-.075-.014-.092-.043a.246.246 0 0 1-.017-.088v-5.75Zm7.968 3.409c0 .058.039.087.117.087h1.664c.051 0 .115-.003.193-.008.079-.006.154-.018.227-.035a.818.818 0 0 0 .202-.088.314.314 0 0 0 .126-.157.336.336 0 0 0 .059-.166v-.044a.188.188 0 0 0-.026-.096l-.033-.087a.285.285 0 0 0-.118-.14.292.292 0 0 0-.126-.07.61.61 0 0 0-.176-.044.999.999 0 0 0-.185-.017 1.402 1.402 0 0 0-.143-.01h-1.68c-.068 0-.101.027-.101.08v.795Zm0-1.757c0 .018.008.032.025.044.017.017.031.026.042.026h1.823c.118 0 .247.006.387.018.14.005.28.023.42.052.146.023.283.061.412.114.134.046.246.11.336.192.157.11.26.248.311.41.061.146.092.304.092.473v.06c0 .17-.022.333-.067.49a1.083 1.083 0 0 1-.328.402 1.376 1.376 0 0 1-.344.201 2.965 2.965 0 0 1-.404.114 5.38 5.38 0 0 1-.428.052c-.14.006-.269.01-.387.01h-3.058c-.062 0-.092-.03-.092-.088V36.63c0-.059.033-.088.1-.088h1.059c.067 0 .101.03.101.088v1.625Zm5.377-1.748c.062 0 .098.009.109.026.017.018.026.05.026.097v4.125a.221.221 0 0 1-.026.07c-.011.035-.05.052-.117.052h-.975c-.056 0-.095-.014-.117-.044a.208.208 0 0 1-.026-.078V36.63c0-.041.006-.07.017-.088.017-.023.056-.035.118-.035h.991Zm5.813 4.405c-.051 0-.076-.03-.076-.087v-2.85c0-.034-.014-.055-.042-.06a.112.112 0 0 0-.084.017l-2.958 2.936c-.022.03-.056.044-.1.044h-1.152a.089.089 0 0 1-.067-.026.108.108 0 0 1-.025-.061V36.63c0-.059.031-.088.092-.088h1.076c.056 0 .084.03.084.088v2.84c0 .04.014.064.042.07.028.006.056-.003.084-.026l2.924-2.92a.788.788 0 0 1 .059-.034.116.116 0 0 1 .067-.018h1.159c.062 0 .093.03.093.088v4.195c0 .058-.031.087-.093.087h-1.083Zm-3.378-6.013c0-.07.034-.105.101-.105h.588c.073 0 .118.026.134.079.023.052.054.114.093.183a.593.593 0 0 0 .218.175c.101.053.272.079.513.079s.414-.026.521-.079a.513.513 0 0 0 .218-.175.82.82 0 0 0 .093-.183c.022-.053.064-.079.126-.079h.588c.078 0 .117.035.117.105a1.22 1.22 0 0 1-.168.577 1.082 1.082 0 0 1-.369.35 1.585 1.585 0 0 1-.521.166 4.026 4.026 0 0 1-.605.043c-.208 0-.406-.014-.597-.043a1.571 1.571 0 0 1-.512-.166 1.063 1.063 0 0 1-.378-.341 1.183 1.183 0 0 1-.16-.586ZM50.86 48.074c.073 0 .113.029.118.087a.63.63 0 0 0 .168.34c.09.094.202.17.336.228.135.053.283.09.446.114a3.727 3.727 0 0 0 .89.017 3.88 3.88 0 0 0 .53-.07c.179-.04.336-.099.47-.175.135-.075.202-.177.202-.306v-.06c0-.123-.037-.213-.11-.272a.648.648 0 0 0-.277-.122 1.36 1.36 0 0 0-.353-.026h-.344l-1.31-.018a.12.12 0 0 1-.076-.026.086.086 0 0 1-.026-.061v-.647c0-.023.011-.044.034-.06a.11.11 0 0 1 .067-.027l1.31-.018.177-.008c.101-.006.207-.02.32-.044.117-.03.22-.07.31-.122.096-.053.143-.126.143-.219v-.105c0-.07-.036-.13-.109-.183a.95.95 0 0 0-.286-.131 1.91 1.91 0 0 0-.411-.088 3.146 3.146 0 0 0-.48-.035c-.19 0-.38.015-.57.044a2.29 2.29 0 0 0-.522.14c-.15.058-.28.137-.386.236a.529.529 0 0 0-.185.34c-.022.053-.056.08-.1.08h-1.05c-.063 0-.093-.03-.093-.088v-.018c0-.291.084-.536.252-.734a1.83 1.83 0 0 1 .638-.49 3.38 3.38 0 0 1 .857-.261 5.21 5.21 0 0 1 .883-.08h.378c.128 0 .277.01.445.027a4.245 4.245 0 0 1 1.042.21c.173.058.327.131.462.218.134.082.244.181.328.298a.67.67 0 0 1 .126.402v.06a.994.994 0 0 1-.194.621c-.128.163-.336.26-.621.289.23.011.434.075.613.192.18.11.291.265.336.463a1.467 1.467 0 0 1 .034.332v.062a.914.914 0 0 1-.26.672 1.842 1.842 0 0 1-.631.42 3.582 3.582 0 0 1-.823.21c-.292.04-.563.06-.815.06h-.404c-.252 0-.535-.02-.848-.06a3.018 3.018 0 0 1-.866-.228 1.9 1.9 0 0 1-.68-.489c-.18-.21-.27-.487-.27-.83 0-.03.012-.047.035-.053a.267.267 0 0 1 .067-.008h1.084Zm9.494-.35c-.005-.093-.064-.134-.176-.122l-2.134.21a4.689 4.689 0 0 0-.26.034 1.735 1.735 0 0 0-.328.07 1.1 1.1 0 0 0-.286.14.249.249 0 0 0-.118.219v.087c.011.076.026.14.042.192a.264.264 0 0 0 .076.123.59.59 0 0 0 .227.14.926.926 0 0 0 .151.06c.056.012.115.027.176.044.157.03.323.044.496.044a10.214 10.214 0 0 0 .798-.035c.14-.017.278-.04.412-.07.135-.029.258-.064.37-.105a.59.59 0 0 0 .395-.34c.044-.088.08-.178.109-.271.028-.1.045-.207.05-.324v-.096Zm.328 1.477c-.163.192-.353.32-.571.385-.213.064-.437.11-.672.14a9.846 9.846 0 0 1-1.194.07h-.117c-.236 0-.485-.015-.748-.044a2.443 2.443 0 0 1-.723-.175 1.39 1.39 0 0 1-.546-.411c-.14-.186-.21-.437-.21-.752v-.026c0-.413.154-.716.462-.909.157-.099.325-.177.505-.236.179-.058.375-.096.588-.113l2.63-.289c.156-.006.257-.046.302-.122a.292.292 0 0 0 .084-.21.745.745 0 0 0-.025-.157.612.612 0 0 0-.084-.088.417.417 0 0 0-.11-.078 1.134 1.134 0 0 0-.285-.079 2.262 2.262 0 0 0-.353-.044 3.592 3.592 0 0 0-.353-.017h-.386c-.252 0-.482.006-.69.017a3.03 3.03 0 0 0-.663.123c-.157.052-.26.105-.311.157-.05.052-.081.152-.093.297-.01.064-.058.096-.142.096h-.89c-.09 0-.135-.026-.135-.078v-.018c0-.198.03-.373.092-.524a1.02 1.02 0 0 1 .336-.402c.135-.122.291-.216.47-.28.18-.07.365-.122.555-.157a3.69 3.69 0 0 1 .572-.061c.196-.006.378-.01.546-.01h.252c.347 0 .644.01.89.027.252.018.457.047.614.088.117.035.235.075.353.122.123.047.235.102.336.166.1.064.19.14.268.227a.706.706 0 0 1 .169.289c.05.174.072.343.067.507l-.084 1.223c0 .076.005.163.017.262.01.1.028.216.05.35.028.256.199.384.513.384h.142c.045 0 .079.027.101.08a.745.745 0 0 1 .025.218v.393c0 .081-.042.122-.126.122h-.386a3.58 3.58 0 0 1-.37-.017 2.055 2.055 0 0 1-.294-.053.804.804 0 0 1-.21-.105.277.277 0 0 1-.11-.157l-.058-.131Zm7.826-1.599c0 .384-.087.716-.26.996a1.822 1.822 0 0 1-.748.664 4.22 4.22 0 0 1-.42.192 3.367 3.367 0 0 1-.412.132c-.134.029-.277.05-.428.06a5.893 5.893 0 0 1-.471.018h-.16c-.302 0-.599-.032-.89-.096a3.48 3.48 0 0 1-.782-.288 2.306 2.306 0 0 1-.605-.446 1.493 1.493 0 0 1-.336-.603 3.4 3.4 0 0 1-.126-.892v-.41c0-.216.009-.429.026-.638.016-.21.047-.417.092-.62.067-.438.24-.805.52-1.102a2.29 2.29 0 0 1 1.034-.62c.404-.129.936-.193 1.597-.193h.958a.926.926 0 0 0 .252-.035c.067-.029.1-.046.1-.052.017-.018.026-.035.026-.053.01-.04.028-.064.05-.07a.457.457 0 0 1 .093-.008h.554c.078 0 .118.029.118.087 0 .239-.062.446-.185.62-.118.17-.311.277-.58.324a2.399 2.399 0 0 1-.454.035h-1.285c-.33 0-.62.04-.866.122a1.66 1.66 0 0 0-.714.49c-.179.21-.269.454-.269.734v.34a1.84 1.84 0 0 1 .84-.637 3.423 3.423 0 0 1 1.143-.175h.042a4.363 4.363 0 0 1 1.084.14c.196.064.375.14.538.227.168.081.328.198.479.35.297.35.445.763.445 1.24v.167Zm-4.495-.079v.122c0 .152.03.303.092.455a.917.917 0 0 0 .286.367c.062.058.134.11.218.157.085.047.174.088.27.122a2.48 2.48 0 0 0 .773.131c.195 0 .389-.017.58-.052.195-.035.369-.099.52-.192a1.11 1.11 0 0 0 .37-.376c.095-.157.143-.361.143-.612v-.13c0-.146-.031-.298-.093-.455a1.153 1.153 0 0 0-.227-.394 1.239 1.239 0 0 0-.605-.323 3.016 3.016 0 0 0-.689-.079c-.184 0-.375.027-.57.08a1.698 1.698 0 0 0-.53.226c-.157.1-.286.228-.387.385a1.03 1.03 0 0 0-.151.568Zm10.082-.157c0-.146-.025-.3-.076-.464a.867.867 0 0 0-.285-.445 1.076 1.076 0 0 0-.32-.227 1.794 1.794 0 0 0-.395-.15 2.444 2.444 0 0 0-.411-.069 3.132 3.132 0 0 0-.387-.026c-.173 0-.355.011-.546.035a2.28 2.28 0 0 0-.53.13 1.522 1.522 0 0 0-.461.28c-.135.123-.236.28-.303.472l-.05.245a1.008 1.008 0 0 0-.025.219v.192c0 .326.09.6.269.822.179.215.411.37.697.463.112.046.246.081.403.104.157.018.339.027.546.027.286 0 .555-.03.807-.088.252-.064.484-.198.697-.402a1.08 1.08 0 0 0 .278-.41 1.42 1.42 0 0 0 .092-.516v-.192Zm-1.756-2.16c.157 0 .322.007.496.018.173.012.344.033.512.062.174.029.345.07.513.122.168.047.322.108.462.184.185.116.347.241.487.375.14.129.258.294.353.498a.874.874 0 0 1 .092.245l.05.245.034.218c.012.07.017.14.017.21v.166c0 .14-.017.286-.05.437a2.145 2.145 0 0 1-.143.48c-.14.28-.317.505-.53.674-.207.169-.436.3-.688.393a3.404 3.404 0 0 1-.782.175 7.824 7.824 0 0 1-.823.044h-.277c-.337 0-.675-.024-1.017-.07a2.428 2.428 0 0 1-.966-.332 1.85 1.85 0 0 1-.311-.184 1.396 1.396 0 0 1-.227-.218 1.44 1.44 0 0 1-.302-.437 2.155 2.155 0 0 1-.177-.752 2.857 2.857 0 0 1-.008-.21v-.166c0-.268.033-.518.1-.752.073-.233.202-.445.387-.638.14-.163.31-.294.513-.393.207-.105.425-.186.655-.245.23-.058.462-.096.697-.113.235-.023.454-.035.656-.035h.277Zm5.55 4.458c-.045 0-.07-.011-.076-.035-.005-.006-.008-.026-.008-.06v-3.41a.096.096 0 0 0-.025-.07.16.16 0 0 0-.076-.017h-1.84c-.028 0-.048-.009-.059-.026a.086.086 0 0 1-.025-.061v-.638c0-.03.008-.053.025-.07.011-.018.03-.026.059-.026h5.21c.027 0 .05.008.066.026a.16.16 0 0 1 .017.07v.638a.145.145 0 0 1-.017.061.09.09 0 0 1-.067.026h-1.932c-.023 0-.04.006-.05.018-.017.011-.026.035-.026.07v3.408a.085.085 0 0 1-.025.061c-.017.024-.045.035-.084.035h-1.067Zm8.455 0c-.055 0-.084-.029-.084-.087v-2.85c0-.034-.014-.055-.041-.06a.088.088 0 0 0-.076.017l-2.958 2.937a.135.135 0 0 1-.1.043h-1.16a.089.089 0 0 1-.067-.026.11.11 0 0 1-.025-.061v-4.195c0-.058.03-.088.092-.088h1.084c.056 0 .084.03.084.088v2.84c0 .04.011.064.034.07.028.006.056-.003.084-.026l2.932-2.92a.376.376 0 0 1 .05-.034.116.116 0 0 1 .067-.018h1.168c.062 0 .093.03.093.088v4.195c0 .058-.031.087-.093.087h-1.084Zm3.959 0c-.045 0-.07-.011-.076-.035-.005-.006-.008-.026-.008-.06v-3.41a.096.096 0 0 0-.025-.07.16.16 0 0 0-.076-.017h-1.84c-.028 0-.048-.009-.059-.026a.086.086 0 0 1-.025-.061v-.638c0-.03.008-.053.025-.07.011-.018.03-.026.059-.026h5.21c.027 0 .05.008.066.026a.16.16 0 0 1 .017.07v.638a.145.145 0 0 1-.017.061.09.09 0 0 1-.067.026h-1.932c-.023 0-.04.006-.05.018-.017.011-.026.035-.026.07v3.408a.085.085 0 0 1-.025.061c-.017.024-.045.035-.084.035h-1.067Zm3.693-2.281c0-.268.034-.518.101-.752.073-.233.202-.445.387-.638.14-.163.31-.294.512-.393.208-.105.426-.186.656-.245.23-.058.462-.096.697-.113a6.68 6.68 0 0 1 .655-.035h.278c.157 0 .322.006.496.017.173.012.344.033.512.062.174.029.344.07.512.122.168.047.323.108.463.184.184.116.347.241.487.375.14.129.258.294.353.498a.872.872 0 0 1 .092.245l.051.245c.005.04.008.078.008.114.006.034.014.07.025.104h-1.252a4.236 4.236 0 0 0-.033-.13.632.632 0 0 0-.034-.14.868.868 0 0 0-.285-.446 1.077 1.077 0 0 0-.32-.227 1.796 1.796 0 0 0-.395-.15 2.446 2.446 0 0 0-.411-.069 3.134 3.134 0 0 0-.387-.026c-.174 0-.356.011-.546.035a2.278 2.278 0 0 0-.53.13 1.523 1.523 0 0 0-.462.28c-.134.123-.235.28-.302.472l-.05.245a1.008 1.008 0 0 0-.025.219v.192c0 .326.09.6.268.822.18.215.412.37.698.463.112.046.246.081.403.104.157.018.339.027.546.027.286 0 .555-.03.807-.088a1.56 1.56 0 0 0 .697-.402.989.989 0 0 0 .244-.306 1.19 1.19 0 0 0 .1-.384h1.269a.522.522 0 0 0-.025.096.569.569 0 0 1-.008.096 2.157 2.157 0 0 1-.143.48 1.97 1.97 0 0 1-.53.674 2.4 2.4 0 0 1-.689.393 3.402 3.402 0 0 1-.78.175c-.275.029-.55.044-.824.044h-.278c-.336 0-.675-.024-1.016-.07a2.428 2.428 0 0 1-.966-.332 1.851 1.851 0 0 1-.311-.184 1.399 1.399 0 0 1-.227-.218 1.438 1.438 0 0 1-.303-.437 2.155 2.155 0 0 1-.176-.752 2.86 2.86 0 0 1-.008-.21v-.166Zm10.92-.193c.05 0 .092-.005.126-.017.033-.017.05-.043.05-.078v-.883c0-.035-.017-.061-.05-.079a.273.273 0 0 0-.126-.026h-1.546c-.067 0-.163.006-.286.018a2.094 2.094 0 0 0-.37.07.928.928 0 0 0-.31.157.297.297 0 0 0-.135.253v.088c0 .11.042.198.126.262.09.064.193.114.311.148.123.035.246.059.37.07.123.012.221.018.294.018h1.546Zm.143.91c0-.059-.023-.088-.068-.088h-.865c-.05 0-.09.015-.118.044l-1.688 1.556c-.04.035-.076.052-.11.052h-1.176c-.034 0-.056-.014-.067-.044-.011-.029-.006-.049.017-.06l1.697-1.556a7.339 7.339 0 0 1-.471-.053 2.368 2.368 0 0 1-.453-.13 1.607 1.607 0 0 1-.395-.246 1.1 1.1 0 0 1-.278-.393 1.515 1.515 0 0 1-.067-.472v-.026c0-.198.031-.376.093-.533.061-.158.168-.297.319-.42a1.17 1.17 0 0 1 .336-.218c.123-.058.252-.102.387-.131a2.43 2.43 0 0 1 .411-.07c.14-.012.272-.018.395-.018h3.285c.068 0 .101.03.101.088v4.195c0 .058-.033.087-.101.087h-1.075a.122.122 0 0 1-.076-.026c-.022-.023-.033-.044-.033-.061V48.1Zm10.196-.734c0-.146-.026-.3-.076-.464a.862.862 0 0 0-.286-.445 1.07 1.07 0 0 0-.319-.227 1.793 1.793 0 0 0-.395-.15 2.43 2.43 0 0 0-.411-.069 3.149 3.149 0 0 0-.387-.026 4.49 4.49 0 0 0-.546.035 2.274 2.274 0 0 0-.529.13 1.527 1.527 0 0 0-.463.28 1.13 1.13 0 0 0-.302.472l-.05.245a.998.998 0 0 0-.026.219v.192c0 .326.09.6.269.822.179.215.412.37.698.463.112.046.246.081.403.104.157.018.339.027.546.027.286 0 .555-.03.807-.088.252-.064.484-.198.697-.402.129-.122.221-.259.277-.41a1.4 1.4 0 0 0 .093-.516v-.192Zm-1.756-2.16c.156 0 .322.007.495.018.174.012.345.033.513.062.174.029.344.07.512.122.168.047.322.108.463.184.184.116.347.241.487.375.14.129.257.294.353.498a.872.872 0 0 1 .092.245l.051.245.033.218c.011.07.017.14.017.21v.166c0 .14-.017.286-.05.437a2.157 2.157 0 0 1-.143.48c-.14.28-.317.505-.53.674-.207.169-.437.3-.689.393a3.388 3.388 0 0 1-.781.175 7.824 7.824 0 0 1-.823.044h-.278a7.5 7.5 0 0 1-1.016-.07 2.432 2.432 0 0 1-.967-.332 1.835 1.835 0 0 1-.31-.184 1.36 1.36 0 0 1-.227-.218 1.44 1.44 0 0 1-.303-.437 2.146 2.146 0 0 1-.176-.752 2.668 2.668 0 0 1-.009-.21v-.166c0-.268.034-.518.101-.752a1.61 1.61 0 0 1 .387-.638c.14-.163.311-.294.512-.393.208-.105.426-.186.656-.245.229-.058.462-.096.697-.113.235-.023.454-.035.655-.035h.278Zm8.195 2.597c-.062 0-.093.026-.093.078v.935c0 .041.031.062.093.062h1.748c.084 0 .17-.003.26-.01.095-.01.179-.028.252-.052a.462.462 0 0 0 .193-.13.332.332 0 0 0 .076-.228v-.218a.288.288 0 0 0-.076-.21.462.462 0 0 0-.193-.131.806.806 0 0 0-.252-.07 1.357 1.357 0 0 0-.26-.026h-1.748Zm-.009-1.713c-.061 0-.092.023-.092.07v.76c0 .052.031.079.092.079h1.622a1.957 1.957 0 0 0 .395-.044.544.544 0 0 0 .176-.079.207.207 0 0 0 .101-.14.214.214 0 0 0 .017-.07.278.278 0 0 0 .008-.07v-.122a.308.308 0 0 0-.033-.13.243.243 0 0 0-.109-.132.56.56 0 0 0-.177-.079 1.021 1.021 0 0 0-.193-.035 2.163 2.163 0 0 0-.185-.008h-1.622Zm-1.201 3.574a.143.143 0 0 1-.067-.017.083.083 0 0 1-.034-.07v-4.195c0-.03.011-.05.034-.061a.109.109 0 0 1 .067-.027h2.949c.202 0 .409.012.622.035a2.2 2.2 0 0 1 .588.14c.179.07.325.172.437.306.118.128.176.3.176.516v.279c0 .064-.005.129-.016.193a1.19 1.19 0 0 1-.093.27l-.084.088a.212.212 0 0 1-.067.061.509.509 0 0 1-.093.061l-.067.035a.742.742 0 0 1-.109.061c.157.059.303.134.437.228a.647.647 0 0 1 .269.41c.017.111.025.225.025.341v.088c0 .244-.053.448-.16.611-.1.158-.24.286-.42.385a2.01 2.01 0 0 1-.605.201c-.229.04-.47.061-.722.061h-3.067Zm10.096-1.94c-.006-.093-.065-.134-.177-.122l-2.134.21a4.761 4.761 0 0 0-.26.034 1.728 1.728 0 0 0-.328.07 1.106 1.106 0 0 0-.286.14.25.25 0 0 0-.117.219v.087c.011.076.025.14.042.192a.27.27 0 0 0 .075.123.592.592 0 0 0 .227.14.944.944 0 0 0 .152.06c.056.012.114.027.176.044.157.03.322.044.496.044a8.84 8.84 0 0 0 .798-.035c.14-.017.277-.04.412-.07.134-.029.257-.064.369-.105a.589.589 0 0 0 .395-.34c.045-.088.081-.178.109-.271.028-.1.045-.207.051-.324v-.096Zm.328 1.477c-.163.192-.353.32-.572.385a4.07 4.07 0 0 1-.672.14 9.831 9.831 0 0 1-1.193.07h-.118c-.235 0-.484-.015-.747-.044a2.442 2.442 0 0 1-.723-.175 1.382 1.382 0 0 1-.546-.411c-.14-.186-.21-.437-.21-.752v-.026c0-.413.154-.716.462-.909.157-.099.325-.177.504-.236.179-.058.375-.096.588-.113l2.63-.289c.157-.006.258-.046.302-.122a.292.292 0 0 0 .084-.21.729.729 0 0 0-.025-.157.57.57 0 0 0-.084-.088.412.412 0 0 0-.109-.078 1.132 1.132 0 0 0-.286-.079 2.253 2.253 0 0 0-.353-.044 3.576 3.576 0 0 0-.352-.017h-.387c-.252 0-.482.006-.689.017a3.03 3.03 0 0 0-.664.123c-.156.052-.26.105-.311.157-.05.052-.081.152-.092.297-.011.064-.059.096-.143.096h-.89c-.09 0-.135-.026-.135-.078v-.018c0-.198.031-.373.093-.524.067-.152.179-.286.336-.402.134-.122.291-.216.47-.28a3.01 3.01 0 0 1 .555-.157 3.69 3.69 0 0 1 .571-.061c.196-.006.378-.01.546-.01H129c.348 0 .644.01.891.027.252.018.456.047.613.088.118.035.235.075.353.122.123.047.235.102.336.166.101.064.191.14.269.227a.715.715 0 0 1 .168.289c.05.174.073.343.067.507l-.084 1.223c0 .076.006.163.017.262.011.1.028.216.05.35.029.256.199.384.513.384h.143c.045 0 .078.027.101.08a.775.775 0 0 1 .025.218v.393c0 .081-.042.122-.126.122h-.387a3.57 3.57 0 0 1-.369-.017 2.025 2.025 0 0 1-.294-.053.804.804 0 0 1-.21-.105.28.28 0 0 1-.11-.157l-.058-.131Zm1.975-1.818c0-.268.034-.518.101-.752a1.61 1.61 0 0 1 .387-.638c.14-.163.311-.294.512-.393.208-.105.426-.186.656-.245.229-.058.462-.096.697-.113.235-.023.454-.035.655-.035h.278c.157 0 .322.006.495.017.174.012.345.033.513.062.174.029.344.07.512.122.168.047.323.108.463.184.184.116.347.241.487.375.14.129.258.294.353.498a.872.872 0 0 1 .092.245l.051.245c.005.04.008.078.008.114.006.034.014.07.025.104h-1.252a4.299 4.299 0 0 0-.033-.13.65.65 0 0 0-.034-.14.862.862 0 0 0-.286-.446 1.07 1.07 0 0 0-.319-.227 1.793 1.793 0 0 0-.395-.15 2.43 2.43 0 0 0-.411-.069 3.136 3.136 0 0 0-.387-.026 4.49 4.49 0 0 0-.546.035 2.274 2.274 0 0 0-.529.13 1.54 1.54 0 0 0-.463.28 1.13 1.13 0 0 0-.302.472l-.05.245a.998.998 0 0 0-.026.219v.192c0 .326.09.6.269.822.18.215.412.37.698.463.112.046.246.081.403.104.157.018.339.027.546.027.286 0 .555-.03.807-.088.252-.064.484-.198.697-.402a1 1 0 0 0 .244-.306 1.2 1.2 0 0 0 .101-.384h1.268a.522.522 0 0 0-.025.096.569.569 0 0 1-.008.096 2.157 2.157 0 0 1-.143.48c-.14.28-.317.505-.53.674-.207.169-.436.3-.689.393a3.388 3.388 0 0 1-.781.175 7.824 7.824 0 0 1-.823.044h-.278a7.5 7.5 0 0 1-1.016-.07 2.422 2.422 0 0 1-.966-.332 1.844 1.844 0 0 1-.311-.184 1.36 1.36 0 0 1-.227-.218 1.44 1.44 0 0 1-.303-.437 2.19 2.19 0 0 1-.176-.752 2.668 2.668 0 0 1-.009-.21v-.166Z" fill="#6C6C6C"/></svg>